<?xml version="1.0" encoding="UTF-8" standalone="no"?>
<!-- Created with Inkscape (http://www.inkscape.org/) -->

<svg
   xmlns:dc="http://purl.org/dc/elements/1.1/"
   xmlns:cc="http://creativecommons.org/ns#"
   xmlns:rdf="http://www.w3.org/1999/02/22-rdf-syntax-ns#"
   xmlns:svg="http://www.w3.org/2000/svg"
   xmlns="http://www.w3.org/2000/svg"
   xmlns:sodipodi="http://sodipodi.sourceforge.net/DTD/sodipodi-0.dtd"
   xmlns:inkscape="http://www.inkscape.org/namespaces/inkscape"
   version="1.1"
   id="svg21609"
   xml:space="preserve"
   width="800"
   height="800"
   viewBox="0 0 800 800"
   sodipodi:docname="stock-vector-graphics-2publicdomainvectors.org.svg"
   inkscape:version="0.92.4 (5da689c313, 2019-01-14)"><metadata
     id="metadata21615"><rdf:RDF><cc:Work
         rdf:about=""><dc:format>image/svg+xml</dc:format><dc:type
           rdf:resource="http://purl.org/dc/dcmitype/StillImage" /><dc:title></dc:title></cc:Work></rdf:RDF></metadata><defs
     id="defs21613"><clipPath
       clipPathUnits="userSpaceOnUse"
       id="clipPath21625"><path
         d="M 0,600 H 600 V 0 H 0 Z"
         id="path21623"
         inkscape:connector-curvature="0" /></clipPath><linearGradient
       x1="0"
       y1="0"
       x2="1"
       y2="0"
       gradientUnits="userSpaceOnUse"
       gradientTransform="matrix(470.63379,0,0,-470.63379,112.30273,349.65625)"
       spreadMethod="pad"
       id="linearGradient21649"><stop
         style="stop-opacity:1;stop-color:#1aaeec"
         offset="0"
         id="stop21639" /><stop
         style="stop-opacity:1;stop-color:#4253a7"
         offset="0.297753"
         id="stop21641" /><stop
         style="stop-opacity:1;stop-color:#e70c8d"
         offset="0.646067"
         id="stop21643" /><stop
         style="stop-opacity:1;stop-color:#e33c47"
         offset="0.955056"
         id="stop21645" /><stop
         style="stop-opacity:1;stop-color:#e33c47"
         offset="1"
         id="stop21647" /></linearGradient></defs><sodipodi:namedview
     pagecolor="#ffffff"
     bordercolor="#666666"
     borderopacity="1"
     objecttolerance="10"
     gridtolerance="10"
     guidetolerance="10"
     inkscape:pageopacity="0"
     inkscape:pageshadow="2"
     inkscape:window-width="1920"
     inkscape:window-height="1018"
     id="namedview21611"
     showgrid="false"
     inkscape:zoom="0.90416968"
     inkscape:cx="411.86441"
     inkscape:cy="401.69492"
     inkscape:window-x="-8"
     inkscape:window-y="-8"
     inkscape:window-maximized="1"
     inkscape:current-layer="g21617" /><g
     id="g21617"
     inkscape:groupmode="layer"
     inkscape:label="stock-vector-graphics-2publicdomainvectors.org"
     transform="matrix(1.3333333,0,0,-1.3333333,0,800)"><g
       id="g21619"><g
         id="g21621"
         clip-path="url(#clipPath21625)"><g
           id="g21627"><g
             id="g21629"><g
               id="g21635"><g
                 id="g21637"><path
                   d="m 344.294,135.776 c -2.706,3.334 -6.029,2.91 -8.388,-0.626 -2.422,-3.617 -2.957,-9.844 -0.122,-14.427 2.856,-4.639 7.977,-4.741 10.242,0.145 2.206,4.794 0.965,11.559 -1.732,14.908 m -35.124,54.608 c -1.649,3.326 -4.104,5.687 -5.813,5.737 -1.96,0.04 -2.699,-2.614 -1.307,-6.476 1.428,-3.944 4.742,-7.209 6.943,-6.677 1.98,0.499 1.853,4.042 0.177,7.416 m -17.935,48.68 c -0.612,2.673 -1.204,5.626 -1.594,6.718 -0.445,1.242 -0.794,0.129 -0.512,-2.639 0.292,-2.843 1.387,-6.228 2.194,-7.373 0.695,-0.976 0.54,0.563 -0.088,3.294 m -3.22,19.948 c -0.199,2.277 0.09,4.958 0.37,6.13 0.293,1.231 0.214,0.527 0.105,-1.734 -0.112,-2.321 0.048,-5.351 0.077,-6.619 0.025,-1.162 -0.351,-0.109 -0.552,2.223 m 2.128,30.598 c 0.417,1.539 2.068,3.359 3.541,4.179 1.437,0.804 1.956,0.412 1.304,-1.012 -0.663,-1.452 -2.043,-3.501 -3.249,-4.425 -1.23,-0.938 -2.023,-0.315 -1.596,1.258 m 4.253,11.092 c 0.633,1.226 2.814,2.581 4.755,3.113 1.894,0.52 2.664,0.136 1.83,-0.959 -0.844,-1.11 -2.806,-2.634 -4.502,-3.284 -1.736,-0.671 -2.725,-0.117 -2.083,1.13 m 5.799,8.697 c 0.808,0.95 3.432,1.857 5.772,2.084 2.29,0.223 3.283,-0.201 2.302,-1.015 -0.988,-0.82 -3.431,-1.845 -5.548,-2.2 -2.166,-0.367 -3.341,0.171 -2.526,1.131 m 7.028,6.612 c 0.945,0.713 3.952,1.194 6.637,1.118 2.641,-0.077 3.833,-0.564 2.732,-1.141 -1.102,-0.575 -3.953,-1.135 -6.44,-1.194 -2.533,-0.063 -3.881,0.506 -2.929,1.217 m 16.894,8.043 c 1.163,0.319 4.813,0.039 8.101,-0.617 3.262,-0.654 4.819,-1.329 3.519,-1.514 -1.292,-0.188 -4.834,0.076 -7.961,0.597 -3.156,0.526 -4.82,1.223 -3.659,1.534 m 19.936,2.497 c 1.344,0.008 5.594,-0.958 9.474,-2.167 3.881,-1.218 5.806,-2.123 4.317,-1.999 -1.476,0.123 -5.679,1.109 -9.414,2.197 -3.74,1.084 -5.712,1.963 -4.377,1.969 m 11.029,-0.48 c 1.438,-0.127 6.017,-1.419 10.222,-2.919 4.227,-1.511 6.361,-2.546 4.763,-2.287 -1.581,0.254 -6.149,1.603 -10.215,2.981 -4.052,1.368 -6.194,2.353 -4.77,2.225 M 298.721,154.66 c -1.645,5.337 -6.736,10.282 -11.735,12.052 -5.473,1.915 -9.416,-0.458 -8.522,-6.44 0.938,-6.195 7.112,-13.311 13.359,-14.521 5.713,-1.093 8.579,3.422 6.898,8.909 m -9.876,39.174 c -0.841,4.369 -4.222,9.397 -7.752,11.856 -3.845,2.659 -6.948,1.683 -6.778,-2.885 0.176,-4.73 4.175,-11.229 8.732,-13.68 4.184,-2.233 6.662,0.211 5.798,4.709 m -4.258,31.717 c -0.242,3.497 -2.125,8.079 -4.376,10.614 -2.431,2.731 -4.773,2.468 -5.108,-0.999 -0.337,-3.584 1.955,-9.14 4.991,-11.902 2.81,-2.546 4.738,-1.318 4.493,2.287 m -0.058,25.193 c 0.201,2.757 -0.454,6.665 -1.642,8.966 -1.277,2.462 -2.972,2.544 -3.646,-0.072 -0.689,-2.699 0.292,-7.256 2.064,-9.867 1.647,-2.428 3.014,-1.866 3.224,0.973 m 8.292,34.94 c 0.768,1.646 1.868,4.092 2.249,5.626 0.395,1.588 -0.315,1.837 -1.389,0.385 -1.095,-1.481 -1.898,-4.279 -1.975,-6.081 -0.076,-1.717 0.331,-1.614 1.115,0.07 m 6.925,11.554 c 0.945,1.241 2.647,3.023 3.626,4.153 0.979,1.131 0.666,1.345 -0.535,0.295 -1.214,-1.066 -2.649,-3.155 -3.378,-4.49 -0.718,-1.314 -0.675,-1.219 0.287,0.042 m 17.317,14.683 c 1.2,0.634 3.804,1.318 5.729,1.667 1.877,0.336 2.208,0.34 0.816,-0.119 -1.388,-0.464 -3.816,-1.365 -5.507,-1.87 -1.734,-0.519 -2.242,-0.31 -1.038,0.322 m 9.964,4.077 c 1.301,0.395 4.282,0.627 6.598,0.613 2.264,-0.02 2.855,-0.142 1.382,-0.38 -1.469,-0.237 -4.301,-0.633 -6.392,-0.776 -2.142,-0.144 -2.885,0.147 -1.588,0.543 m 10.699,2.352 c 1.391,0.193 4.736,0.006 7.421,-0.353 2.64,-0.356 3.475,-0.613 1.914,-0.662 -1.551,-0.04 -4.767,0.019 -7.238,0.222 -2.517,0.208 -3.481,0.591 -2.097,0.793 m 14.461,0.053 c 1.537,-0.024 5.237,-0.624 8.225,-1.278 2.95,-0.654 3.915,-0.985 2.195,-0.805 -1.704,0.176 -5.293,0.659 -8.06,1.159 -2.811,0.5 -3.888,0.943 -2.36,0.924 m 9.122,0.313 c 1.586,-0.141 5.69,-1.12 9.142,-2.15 3.436,-1.032 4.76,-1.591 2.984,-1.296 -1.757,0.293 -5.784,1.206 -9.028,2.08 -3.268,0.873 -4.67,1.505 -3.098,1.366 m 13.015,-1.734 c 1.702,-0.297 6.246,-1.668 10.14,-3.051 3.9,-1.391 5.501,-2.123 3.581,-1.664 -1.895,0.454 -6.399,1.795 -10.081,3.017 -3.685,1.222 -5.323,1.987 -3.64,1.698 m 14.012,-2.942 c 1.839,-0.451 6.899,-2.234 11.309,-4.008 4.45,-1.783 6.365,-2.722 4.266,-2.089 -2.068,0.628 -7.142,2.414 -11.328,4.022 -4.166,1.584 -6.067,2.514 -4.247,2.075 M 248.308,117.398 c -0.37,8.882 -8.556,20.245 -18.211,27.325 -10.14,7.441 -19.252,7.899 -20.831,-0.976 -1.642,-9.371 6.52,-25.114 18.732,-32.54 11.542,-7.021 20.654,-3.113 20.31,6.191 m 5.809,103.587 c 0.842,4.423 -2.005,11.901 -6.256,17.368 -4.395,5.629 -9.189,7.506 -10.949,3.557 -1.82,-4.112 0.796,-13.048 6.142,-19.175 5.166,-5.927 10.178,-6.346 11.063,-1.75 m 17.658,52.445 c 1.26,2.293 1.062,6.817 -0.469,10.382 -1.579,3.669 -4.247,5.303 -5.994,3.405 -1.786,-1.956 -1.617,-7.075 0.453,-11.148 2.013,-3.955 4.703,-4.994 6.01,-2.639 m 10.655,15.738 c 1.369,1.644 1.99,5.084 1.313,7.875 -0.697,2.884 -2.693,4.3 -4.431,2.993 -1.761,-1.344 -2.327,-5.2 -1.258,-8.426 1.039,-3.125 2.975,-4.123 4.376,-2.442 m 11.318,11.179 c 1.441,1.161 2.696,3.705 2.686,5.843 -0.014,2.214 -1.496,3.417 -3.229,2.544 -1.749,-0.888 -2.872,-3.761 -2.568,-6.267 0.297,-2.421 1.644,-3.294 3.111,-2.12 m 24.043,12.762 c 1.56,0.49 3.752,1.641 4.754,2.761 1.004,1.126 0.281,1.958 -1.486,1.687 -1.767,-0.274 -3.745,-1.719 -4.548,-3.068 -0.792,-1.325 -0.284,-1.866 1.28,-1.38 m 12.67,2.873 c 1.622,0.243 4.19,0.851 5.633,1.541 1.411,0.681 1.002,1.338 -0.81,1.292 -1.805,-0.05 -4.168,-0.949 -5.401,-1.82 -1.244,-0.885 -1.04,-1.251 0.578,-1.013 m 41.529,-1.363 c 1.897,-0.334 5.698,-1.097 8.442,-1.585 2.684,-0.482 3.099,-0.352 0.984,0.157 -2.091,0.505 -5.735,1.044 -8.201,1.354 -2.529,0.311 -3.103,0.4 -1.225,0.074 m 15.581,-3.315 c 2.043,-0.509 6.382,-1.728 9.653,-2.631 3.226,-0.893 3.937,-0.958 1.635,-0.256 -2.27,0.687 -6.47,1.72 -9.439,2.419 -3.02,0.712 -3.868,0.967 -1.849,0.468 M 166.108,192.137 c 3.916,7.528 0.632,22.739 -5.909,35.134 -6.445,12.17 -14.667,18.1 -20.035,12.47 -5.64,-5.975 -5.484,-23.107 2.409,-37.242 8.033,-14.355 19.365,-18.32 23.535,-10.362 m 28.757,48.776 c 3.178,4.693 1.588,15.441 -2.689,24.617 -4.216,9.016 -10.115,13.866 -14.176,10.428 -4.225,-3.602 -4.501,-15.288 0.589,-25.586 5.19,-10.471 12.942,-14.37 16.276,-9.459 m 23.861,30.962 c 2.717,3.065 2.216,10.898 -0.612,17.869 -2.79,6.872 -7.231,10.868 -10.536,8.682 -3.405,-2.273 -4.046,-10.629 -0.685,-18.387 3.425,-7.87 9.003,-11.336 11.833,-8.164 m 20.783,20.327 c 2.422,2.045 2.657,7.871 0.82,13.268 -1.815,5.35 -5.28,8.675 -8.117,7.275 -2.899,-1.451 -3.831,-7.614 -1.617,-13.6 2.247,-6.048 6.407,-9.031 8.914,-6.943 m 36.149,22.332 c 2.105,0.875 3.274,4.182 2.7,7.529 -0.585,3.367 -2.856,5.766 -5.191,5.263 -2.362,-0.516 -3.749,-4.041 -2.938,-7.772 0.809,-3.721 3.292,-5.901 5.429,-5.02 m 16.522,5.499 c 2.026,0.518 3.546,2.987 3.402,5.636 -0.152,2.693 -2.047,4.768 -4.261,4.546 -2.227,-0.235 -3.809,-2.906 -3.474,-5.888 0.332,-2.946 2.289,-4.813 4.333,-4.294 m 16.016,2.982 c 1.989,0.244 3.83,2.033 4.048,4.122 0.222,2.142 -1.384,3.96 -3.535,3.96 -2.156,-0.002 -3.934,-2.011 -3.993,-4.392 -0.057,-2.329 1.483,-3.929 3.48,-3.69 m 31.757,0.309 c 2.023,-0.179 4.505,0.522 5.385,1.754 0.891,1.256 -0.278,2.705 -2.452,3.071 -2.164,0.354 -4.4,-0.643 -5.145,-2.083 -0.727,-1.405 0.197,-2.562 2.212,-2.742 m 16.336,-2.165 c 2.099,-0.357 4.933,-0.135 6.177,0.738 1.227,0.868 0.254,2.19 -2.007,2.72 -2.244,0.522 -4.787,-0.067 -5.865,-1.103 -1.068,-1.04 -0.386,-1.991 1.695,-2.355 m 17.079,-3.579 c 2.217,-0.538 5.469,-0.768 7.132,-0.256 1.602,0.503 0.826,1.693 -1.58,2.403 -2.382,0.696 -5.332,0.515 -6.758,-0.148 -1.463,-0.683 -0.989,-1.461 1.206,-1.999 m 18.223,-5.023 c 2.396,-0.73 6.18,-1.427 8.344,-1.3 2.066,0.123 1.499,1.186 -1.132,2.098 -2.595,0.891 -6.071,1.152 -7.913,0.856 -1.921,-0.315 -1.663,-0.933 0.701,-1.654 m 19.891,-6.61 c 2.651,-0.944 7.143,-2.168 9.938,-2.482 2.684,-0.297 2.352,0.624 -0.607,1.782 -2.909,1.13 -7.084,1.898 -9.464,1.994 -2.487,0.102 -2.476,-0.363 0.133,-1.294 m 22.27,-8.475 c 3.014,-1.211 8.479,-3.077 12.129,-3.928 3.545,-0.822 3.522,-0.064 0.073,1.41 -3.37,1.439 -8.52,2.829 -11.636,3.4 -3.225,0.585 -3.519,0.307 -0.566,-0.882 m 25.684,-10.825 c 3.54,-1.55 10.398,-4.271 15.273,-5.838 4.813,-1.551 5.238,-1.01 1.054,0.91 -4.069,1.865 -10.642,4.103 -14.817,5.287 -4.255,1.216 -4.967,1.16 -1.51,-0.359 m -334.243,8.592 c 6.042,3.321 9.58,14.55 9.525,24.907 -0.052,9.796 -3.666,16.016 -9.575,14.263 -6.161,-1.834 -12.718,-12.108 -12.838,-23.457 -0.133,-12.027 6.534,-19.176 12.888,-15.713 m 42.42,21.052 c 4.522,1.997 7.17,9.968 6.961,17.711 -0.204,7.375 -3.207,12.355 -7.71,11.351 -4.647,-1.045 -9.234,-8.414 -9.083,-16.759 0.182,-8.784 5.132,-14.361 9.832,-12.303 m 32.751,12.699 c 3.636,1.22 5.837,7.127 5.621,13.154 -0.21,5.784 -2.792,9.914 -6.447,9.369 -3.743,-0.568 -7.244,-6.093 -7.034,-12.528 0.23,-6.722 4.116,-11.233 7.86,-9.995 m 26.935,7.62 c 3.08,0.724 5.055,5.23 4.883,10.065 -0.176,4.679 -2.451,8.208 -5.563,7.966 -3.17,-0.253 -6.029,-4.53 -5.837,-9.667 0.199,-5.325 3.365,-9.082 6.517,-8.364 m 23.237,4.272 c 2.725,0.371 4.591,3.888 4.483,7.861 -0.11,3.879 -2.175,6.97 -4.933,6.947 -2.794,-0.029 -5.247,-3.419 -5.117,-7.633 0.149,-4.331 2.802,-7.548 5.567,-7.175 m 20.841,1.908 c 2.492,0.12 4.325,2.892 4.29,6.221 -0.037,3.285 -1.954,6.055 -4.481,6.2 -2.55,0.138 -4.761,-2.593 -4.691,-6.129 0.07,-3.599 2.363,-6.408 4.882,-6.292 m 19.311,0.126 c 2.349,-0.075 4.208,2.118 4.25,4.955 0.036,2.831 -1.782,5.372 -4.167,5.65 -2.398,0.279 -4.46,-1.951 -4.464,-4.975 -0.002,-3.044 2.018,-5.547 4.381,-5.63 m 18.416,-1.31 c 2.277,-0.241 4.212,1.489 4.334,3.94 0.122,2.478 -1.641,4.852 -3.957,5.257 -2.318,0.401 -4.306,-1.434 -4.391,-4.064 -0.08,-2.614 1.735,-4.883 4.014,-5.133 m 18.04,-2.552 c 2.262,-0.395 4.326,0.947 4.543,3.091 0.217,2.198 -1.529,4.465 -3.836,4.989 -2.303,0.515 -4.284,-0.995 -4.458,-3.314 -0.168,-2.274 1.492,-4.373 3.751,-4.766 m 18.128,-3.716 c 2.308,-0.536 4.563,0.452 4.891,2.347 0.335,1.968 -1.427,4.183 -3.79,4.829 -2.348,0.641 -4.387,-0.601 -4.668,-2.669 -0.268,-2.002 1.274,-3.967 3.567,-4.507 m 18.697,-4.893 c 2.416,-0.69 4.947,-0.038 5.419,1.649 0.491,1.773 -1.327,3.986 -3.816,4.771 -2.466,0.774 -4.632,-0.223 -5.051,-2.082 -0.398,-1.777 1.055,-3.647 3.448,-4.338 m 19.81,-6.182 c 2.601,-0.869 5.524,-0.567 6.198,0.942 0.701,1.591 -1.204,3.861 -3.908,4.814 -2.668,0.936 -5.066,0.167 -5.666,-1.506 -0.569,-1.588 0.811,-3.387 3.376,-4.25 m 21.622,-7.703 c 2.889,-1.084 6.361,-1.191 7.348,0.15 1.009,1.393 -1.018,3.793 -4.063,4.962 -2.99,1.148 -5.759,0.606 -6.623,-0.875 -0.817,-1.423 0.499,-3.166 3.338,-4.237 m 24.402,-9.627 c 3.327,-1.367 7.606,-2.001 9.093,-0.841 1.464,1.146 -0.699,3.751 -4.274,5.228 -3.492,1.437 -6.888,1.166 -8.129,-0.093 -1.224,-1.249 0.055,-2.949 3.31,-4.294 m 28.646,-12.238 c 4.004,-1.765 9.513,-3.093 11.858,-2.233 2.198,0.821 -0.083,3.702 -4.512,5.632 -4.295,1.86 -8.764,1.991 -10.584,1.016 -1.896,-1.021 -0.656,-2.693 3.238,-4.415 m 35.306,-16.04 c 5.093,-2.365 12.671,-4.756 16.516,-4.445 3.565,0.283 1.191,3.528 -4.69,6.191 -5.643,2.559 -12.009,3.398 -14.841,2.828 -3.049,-0.619 -1.899,-2.278 3.015,-4.574 m -357.992,91.646 c 5.261,0.514 11.804,6.092 15.512,11.765 3.565,5.429 3.337,9.343 -1.248,9.432 -4.721,0.086 -12.65,-4.048 -16.898,-10.062 -4.437,-6.297 -2.814,-11.661 2.634,-11.135 m 37.713,2.773 c 4.15,0.198 9.042,4.511 11.63,9.15 2.49,4.464 1.977,7.852 -1.756,8.063 -3.821,0.207 -9.818,-3.097 -12.735,-7.955 -3.033,-5.06 -1.405,-9.463 2.861,-9.258 m 30.421,0.725 c 3.449,-0.004 7.301,3.441 9.172,7.363 1.794,3.794 1.085,6.821 -2.086,7.114 -3.228,0.29 -7.967,-2.439 -10.045,-6.507 -2.153,-4.222 -0.559,-7.959 2.959,-7.97 m 25.722,-0.663 c 2.983,-0.15 6.162,2.677 7.527,6.097 1.324,3.315 0.45,6.097 -2.337,6.451 -2.828,0.357 -6.692,-1.974 -8.217,-5.482 -1.566,-3.631 -0.003,-6.909 3.027,-7.066 m 22.592,-1.679 c 2.672,-0.263 5.389,2.12 6.386,5.179 0.971,2.979 -0.043,5.595 -2.568,6.002 -2.551,0.407 -5.798,-1.631 -6.919,-4.747 -1.148,-3.209 0.399,-6.166 3.101,-6.434 m 20.506,-2.478 c 2.468,-0.354 4.855,1.698 5.572,4.503 0.695,2.749 -0.461,5.265 -2.81,5.719 -2.367,0.455 -5.152,-1.38 -5.967,-4.221 -0.832,-2.91 0.719,-5.642 3.205,-6.001 m 19.162,-3.164 c 2.342,-0.433 4.505,1.373 4.984,4.01 0.469,2.605 -0.846,5.081 -3.087,5.58 -2.251,0.498 -4.681,-1.197 -5.253,-3.857 -0.576,-2.704 1.005,-5.29 3.356,-5.733 m 18.398,-3.796 c 2.284,-0.513 4.294,1.117 4.565,3.657 0.265,2.535 -1.234,5.028 -3.424,5.574 -2.194,0.542 -4.345,-1.069 -4.705,-3.626 -0.359,-2.576 1.281,-5.088 3.564,-5.605 m 18.137,-4.432 c 2.284,-0.596 4.203,0.911 4.278,3.42 0.073,2.537 -1.65,5.102 -3.845,5.703 -2.191,0.594 -4.118,-0.986 -4.282,-3.514 -0.159,-2.515 1.572,-5.011 3.849,-5.609 m 18.36,-5.119 c 2.347,-0.692 4.232,0.739 4.115,3.283 -0.127,2.614 -2.128,5.323 -4.384,5.981 -2.245,0.654 -3.993,-0.943 -3.963,-3.513 0.034,-2.52 1.899,-5.064 4.232,-5.751 m 19.118,-5.918 c 2.485,-0.803 4.401,0.593 4.082,3.24 -0.336,2.776 -2.701,5.708 -5.089,6.441 -2.366,0.724 -3.971,-0.942 -3.737,-3.634 0.229,-2.59 2.282,-5.251 4.744,-6.047 m 20.536,-6.904 c 2.721,-0.947 4.752,0.449 4.219,3.286 -0.574,3.044 -3.417,6.308 -6.03,7.136 -2.577,0.819 -4.079,-0.983 -3.619,-3.891 0.437,-2.739 2.748,-5.598 5.43,-6.531 m 22.873,-8.206 c 3.1,-1.137 5.379,0.288 4.618,3.421 -0.853,3.448 -4.351,7.196 -7.328,8.161 -2.923,0.941 -4.371,-1.07 -3.656,-4.314 0.666,-2.982 3.327,-6.144 6.366,-7.268 m 26.614,-10.03 c 3.709,-1.427 6.492,0.058 5.484,3.632 -1.148,4.05 -5.603,8.523 -9.183,9.683 -3.487,1.126 -4.973,-1.205 -3.972,-4.954 0.903,-3.352 4.058,-6.972 7.671,-8.361 m 32.75,-12.791 c 4.735,-1.873 8.509,-0.358 7.299,3.867 -1.439,4.951 -7.354,10.538 -11.979,12.02 -4.461,1.418 -6.183,-1.381 -4.881,-5.879 1.144,-3.895 4.991,-8.197 9.561,-10.008 M 512.12,291.24 c 6.613,-2.662 12.552,-1.268 11.351,3.918 -1.49,6.335 -9.883,13.78 -16.53,15.84 -6.306,1.951 -8.781,-1.531 -7.267,-7.163 1.269,-4.699 6.146,-10.054 12.446,-12.595 M 170.298,408.533 c 3.801,-0.445 10.473,1.593 15.183,4.014 4.623,2.369 5.919,4.345 2.688,4.916 -3.296,0.576 -10.333,-0.515 -15.524,-3.002 -5.307,-2.539 -6.24,-5.468 -2.347,-5.928 m 28.056,-3.643 c 3.207,-0.454 8.568,1.324 12.25,3.542 3.631,2.186 4.491,4.058 1.694,4.596 -2.843,0.543 -8.598,-0.483 -12.645,-2.74 -4.103,-2.303 -4.567,-4.931 -1.299,-5.398 m 24.007,-3.699 c 2.795,-0.463 7.214,1.139 10.136,3.228 2.89,2.069 3.403,3.885 0.92,4.401 -2.517,0.517 -7.333,-0.476 -10.539,-2.588 -3.238,-2.141 -3.354,-4.568 -0.517,-5.041 m 21.174,-3.75 c 2.503,-0.468 6.22,1.015 8.549,3.042 2.305,2.009 2.523,3.815 0.27,4.309 -2.28,0.498 -6.375,-0.501 -8.934,-2.529 -2.578,-2.051 -2.418,-4.344 0.115,-4.822 m 19.169,-3.801 c 2.297,-0.475 5.467,0.945 7.308,2.968 1.816,2.004 1.767,3.838 -0.32,4.314 -2.104,0.477 -5.625,-0.563 -7.659,-2.559 -2.049,-2.02 -1.646,-4.239 0.671,-4.723 m 17.764,-3.854 c 2.155,-0.484 4.884,0.922 6.295,2.997 1.389,2.05 1.074,3.957 -0.893,4.415 -1.979,0.458 -5.018,-0.663 -6.602,-2.683 -1.596,-2.046 -0.969,-4.238 1.2,-4.729 m 16.818,-3.914 c 2.066,-0.493 4.424,0.951 5.43,3.135 0.989,2.159 0.389,4.18 -1.493,4.618 -1.892,0.438 -4.507,-0.808 -5.681,-2.909 -1.184,-2.129 -0.327,-4.347 1.744,-4.844 m 16.255,-3.98 c 2.018,-0.501 4.051,1.037 4.647,3.398 0.588,2.338 -0.332,4.523 -2.162,4.938 -1.837,0.412 -4.054,-1.011 -4.831,-3.258 -0.78,-2.272 0.325,-4.573 2.346,-5.078 m 16.031,-4.047 c 2.015,-0.51 3.737,1.192 3.895,3.808 0.154,2.61 -1.143,5.02 -2.95,5.402 -1.811,0.379 -3.628,-1.287 -3.989,-3.762 -0.359,-2.488 1.034,-4.935 3.044,-5.448 m 16.15,-4.115 c 2.053,-0.517 3.457,1.44 3.115,4.413 -0.353,3.002 -2.114,5.711 -3.924,6.048 -1.81,0.333 -3.199,-1.665 -3.092,-4.473 0.11,-2.794 1.855,-5.467 3.901,-5.988 m 16.642,-4.171 c 2.147,-0.527 3.203,1.808 2.248,5.281 -0.981,3.554 -3.341,6.674 -5.181,6.94 -1.838,0.263 -2.732,-2.191 -2.061,-5.472 0.661,-3.223 2.863,-6.224 4.994,-6.749 m 17.61,-4.205 c 2.308,-0.527 2.946,2.353 1.204,6.536 -1.811,4.338 -4.971,8.019 -6.875,8.178 -1.896,0.152 -2.181,-2.945 -0.782,-6.895 1.359,-3.825 4.169,-7.29 6.453,-7.819 m 19.236,-4.176 c 2.574,-0.52 2.674,3.164 -0.143,8.378 -2.965,5.473 -7.25,9.943 -9.257,9.923 -1.993,-0.03 -1.468,-4.057 0.919,-8.964 2.281,-4.694 5.946,-8.822 8.481,-9.337 m 21.904,-4.027 c 3.017,-0.488 2.392,4.422 -1.998,11.187 -4.669,7.182 -10.623,12.789 -12.796,12.455 -2.139,-0.344 -0.46,-5.771 3.342,-12.089 3.596,-5.974 8.504,-11.068 11.452,-11.553 m 26.439,-3.605 c 3.794,-0.405 2.136,6.49 -4.727,15.725 -7.365,9.903 -15.982,17.213 -18.424,16.281 -2.364,-0.927 1.083,-8.573 7.051,-17.078 5.586,-7.954 12.431,-14.526 16.1,-14.928 m 34.852,-2.54 c 5.34,-0.193 2.162,10.24 -9.006,23.762 -12.084,14.64 -25.392,24.632 -28.315,22.417 -2.737,-2.132 3.647,-13.618 13.229,-25.749 8.875,-11.249 19.02,-20.229 24.092,-20.43 m -272.769,72.709 c 2.669,-0.59 8.577,-0.24 13.242,0.493 4.616,0.719 6.521,1.537 4.232,2.098 -2.324,0.566 -8.256,0.704 -13.246,0.018 -5.056,-0.698 -6.939,-2.004 -4.228,-2.609 m 20.148,-4.546 c 2.367,-0.54 7.418,-0.103 11.355,0.708 3.918,0.809 5.463,1.673 3.397,2.176 -2.092,0.507 -7.236,0.507 -11.455,-0.26 -4.245,-0.775 -5.696,-2.072 -3.297,-2.624 m 18.029,-4.165 c 2.141,-0.497 6.508,0.035 9.848,0.949 3.339,0.917 4.576,1.841 2.689,2.291 -1.911,0.453 -6.419,0.308 -10.012,-0.556 -3.595,-0.868 -4.691,-2.178 -2.525,-2.684 m 16.418,-3.826 c 1.968,-0.456 5.771,0.19 8.601,1.235 2.836,1.047 3.795,2.053 2.049,2.45 -1.764,0.398 -5.737,0.094 -8.797,-0.889 -3.052,-0.984 -3.839,-2.333 -1.853,-2.796 m 15.18,-3.498 c 1.833,-0.415 5.145,0.377 7.516,1.585 2.377,1.214 3.07,2.324 1.442,2.662 -1.642,0.34 -5.146,-0.149 -7.731,-1.282 -2.574,-1.13 -3.074,-2.544 -1.227,-2.965 m 14.216,-3.154 c 1.727,-0.37 4.589,0.605 6.52,2.023 1.932,1.422 2.357,2.666 0.832,2.937 -1.541,0.272 -4.607,-0.442 -6.744,-1.76 -2.127,-1.318 -2.347,-2.824 -0.608,-3.2 m 13.451,-2.765 c 1.643,-0.317 4.07,0.893 5.552,2.581 1.474,1.684 1.609,3.097 0.178,3.289 -1.445,0.19 -4.079,-0.8 -5.767,-2.356 -1.687,-1.559 -1.614,-3.192 0.037,-3.514 m 12.834,-2.292 c 1.572,-0.25 3.553,1.265 4.539,3.302 0.977,2.021 0.779,3.649 -0.558,3.736 -1.351,0.085 -3.523,-1.256 -4.736,-3.112 -1.217,-1.868 -0.826,-3.67 0.755,-3.926 m 12.31,-1.679 c 1.508,-0.163 2.994,1.761 3.402,4.246 0.402,2.462 -0.191,4.354 -1.425,4.304 -1.247,-0.053 -2.892,-1.844 -3.571,-4.09 -0.681,-2.267 0.075,-4.293 1.594,-4.46 m 11.817,-0.849 c 1.448,-0.039 2.341,2.44 2.04,5.504 -0.302,3.048 -1.383,5.263 -2.489,5.024 -1.117,-0.245 -2.125,-2.616 -2.165,-5.379 -0.038,-2.779 1.159,-5.105 2.614,-5.149 m 11.29,0.329 c 1.375,0.139 1.504,3.385 0.296,7.212 -1.211,3.828 -2.901,6.441 -3.837,5.931 -0.936,-0.518 -1.133,-3.653 -0.371,-7.1 0.77,-3.45 2.529,-6.177 3.912,-6.043 m 10.606,2.07 c 1.274,0.407 0.367,4.722 -2.057,9.577 -2.435,4.872 -4.904,7.982 -5.592,7.062 -0.667,-0.903 0.212,-5.079 2.037,-9.442 1.828,-4.345 4.333,-7.598 5.612,-7.197 m 9.572,4.746 c 1.12,0.826 -1.277,6.676 -5.395,12.936 -4.133,6.281 -7.635,9.989 -7.919,8.436 -0.256,-1.476 2.12,-7.095 5.404,-12.688 3.277,-5.56 6.802,-9.498 7.91,-8.684 m 7.812,9.067 c 0.839,1.55 -3.789,9.639 -10.358,17.845 -6.562,8.186 -11.443,12.534 -11.035,9.99 0.389,-2.382 4.943,-10.018 10.289,-17.272 5.336,-7.237 10.295,-12.043 11.104,-10.563 m 4.551,16.472 c 0.27,2.844 -7.863,14.369 -18.116,25.269 -10.11,10.726 -16.762,15.536 -15.154,11.37 1.505,-3.882 9.297,-14.35 17.623,-23.846 8.383,-9.562 15.391,-15.442 15.647,-12.793 m -2.021,30.252 c -0.962,5.373 -14.975,22.475 -30.952,36.959 -15.32,13.867 -24.003,18.217 -20.198,11.225 3.541,-6.491 16.255,-20.94 28.966,-33.339 13.05,-12.741 23.061,-19.765 22.184,-14.845 m -138.46,-32.593 c 1.93,-0.489 7.073,-0.825 11.479,-0.905 4.375,-0.077 6.543,0.084 4.851,0.505 -1.711,0.421 -6.813,1.005 -11.424,1.153 -4.651,0.152 -6.859,-0.256 -4.906,-0.753 m 14.78,-3.671 c 1.766,-0.427 6.362,-0.589 10.283,-0.506 3.911,0.084 5.828,0.329 4.27,0.684 -1.576,0.354 -6.188,0.751 -10.305,0.74 -4.131,-0.007 -6.033,-0.486 -4.248,-0.918 m 13.567,-3.174 c 1.628,-0.363 5.75,-0.338 9.241,-0.078 3.496,0.262 5.185,0.597 3.745,0.88 -1.456,0.284 -5.635,0.477 -9.318,0.301 -3.678,-0.179 -5.311,-0.733 -3.668,-1.103 m 12.54,-2.652 c 1.509,-0.296 5.199,-0.062 8.288,0.4 3.107,0.46 4.582,0.899 3.25,1.104 -1.344,0.203 -5.123,0.174 -8.406,-0.191 -3.268,-0.368 -4.654,-1.013 -3.132,-1.313 m 11.628,-2.077 c 1.399,-0.218 4.673,0.264 7.372,0.957 2.719,0.696 3.98,1.252 2.759,1.362 -1.235,0.11 -4.624,-0.174 -7.521,-0.759 -2.876,-0.582 -4.022,-1.337 -2.61,-1.56 m 10.77,-1.401 c 1.291,-0.126 4.139,0.653 6.433,1.624 2.314,0.977 3.353,1.666 2.249,1.661 -1.118,-0.006 -4.103,-0.593 -6.606,-1.434 -2.48,-0.839 -3.382,-1.721 -2.076,-1.851 m 9.896,-0.576 c 1.178,-0.01 3.563,1.136 5.416,2.441 1.863,1.315 2.662,2.159 1.694,2.012 -0.983,-0.15 -3.529,-1.105 -5.604,-2.258 -2.058,-1.145 -2.697,-2.181 -1.506,-2.195 m 8.936,0.472 c 1.047,0.138 2.898,1.735 4.24,3.46 1.341,1.722 1.873,2.751 1.067,2.418 -0.813,-0.337 -2.851,-1.745 -4.441,-3.272 -1.584,-1.524 -1.929,-2.743 -0.866,-2.606 m 7.78,1.842 c 0.886,0.334 2.092,2.505 2.816,4.744 0.717,2.22 0.94,3.459 0.344,2.881 -0.593,-0.577 -2.018,-2.553 -3.035,-4.536 -1.019,-1.991 -1.023,-3.425 -0.125,-3.089 m 6.288,3.679 c 0.675,0.606 1.068,3.506 1.021,6.372 -0.047,2.828 -0.19,4.303 -0.502,3.39 -0.3,-0.884 -0.949,-3.579 -1.272,-6.117 -0.324,-2.565 0.075,-4.246 0.753,-3.645 m 4.249,6.191 c 0.378,0.992 -0.284,4.822 -1.302,8.446 -1,3.557 -1.577,5.262 -1.485,3.901 0.091,-1.294 0.445,-4.874 0.986,-8.086 0.549,-3.261 1.428,-5.215 1.801,-4.261 m 1.342,9.697 c -0.068,1.533 -2.11,6.551 -4.356,11.062 -2.186,4.399 -3.241,6.264 -2.579,4.316 0.629,-1.848 2.277,-6.495 3.895,-10.501 1.651,-4.093 3.097,-6.33 3.04,-4.877 m -2.927,14.656 c -0.738,2.298 -4.613,8.809 -8.376,14.297 -3.62,5.279 -5.127,7.141 -3.673,4.418 1.383,-2.589 4.666,-8.479 7.61,-13.361 3.035,-5.038 5.134,-7.523 4.439,-5.354 m -9.329,21.769 c -1.748,3.394 -8.013,11.701 -13.561,18.088 -5.225,6.017 -7.011,7.503 -4.473,3.774 2.43,-3.556 7.707,-10.782 12.195,-16.503 4.714,-6.001 7.489,-8.565 5.839,-5.359 m -19.045,32.039 c -3.286,4.971 -12.524,15.212 -19.895,22.012 -6.697,6.18 -8.282,6.532 -4.294,1.558 3.827,-4.77 11.351,-13.17 17.43,-19.393 6.57,-6.711 9.858,-8.888 6.759,-4.177 m -33.803,46.818 c -5.599,7.23 -18.087,18.991 -26.637,24.752 -7.272,4.917 -7.573,2.73 -1.778,-3.661 5.589,-6.173 15.196,-15.007 22.396,-20.757 8.164,-6.508 11.33,-7.189 6.019,-0.334 m -1.314,-125.447 c 1.464,-0.328 6.07,-0.89 10.284,-1.324 4.202,-0.435 6.544,-0.636 5.233,-0.385 -1.325,0.255 -5.917,0.93 -10.269,1.442 -4.37,0.515 -6.727,0.599 -5.248,0.267 m 11.275,-2.35 c 1.355,-0.257 5.597,-0.611 9.486,-0.865 3.89,-0.255 6.073,-0.373 4.861,-0.2 -1.225,0.174 -5.49,0.644 -9.521,0.982 -4.034,0.34 -6.194,0.343 -4.826,0.083 m 10.42,-1.738 c 1.25,-0.175 5.144,-0.303 8.72,-0.356 3.591,-0.052 5.621,-0.082 4.512,0 -1.123,0.083 -5.07,0.323 -8.798,0.47 -3.718,0.149 -5.696,0.063 -4.434,-0.114 m 9.577,-1.038 c 1.14,-0.08 4.683,0.055 7.946,0.232 3.282,0.18 5.163,0.248 4.166,0.22 -1.012,-0.027 -4.632,-0.05 -8.057,-0.12 -3.407,-0.068 -5.211,-0.25 -4.055,-0.332 m 8.682,-0.206 c 1.024,0.034 4.192,0.48 7.12,0.922 2.951,0.447 4.679,0.621 3.812,0.462 -0.882,-0.162 -4.151,-0.492 -7.257,-0.81 -3.084,-0.316 -4.712,-0.607 -3.675,-0.574 m 7.679,0.808 c 0.888,0.174 3.632,0.991 6.189,1.743 2.578,0.761 4.145,1.052 3.432,0.731 -0.723,-0.325 -3.593,-1.017 -6.348,-1.629 -2.732,-0.606 -4.174,-1.02 -3.273,-0.845 m 6.48,2.071 c 0.723,0.349 2.969,1.612 5.095,2.728 2.145,1.126 3.536,1.545 3.015,1.02 -0.523,-0.524 -2.923,-1.653 -5.274,-2.607 -2.331,-0.943 -3.567,-1.495 -2.836,-1.141 m 4.983,3.659 c 0.516,0.577 2.152,2.372 3.769,3.911 1.627,1.547 2.826,2.101 2.553,1.315 -0.268,-0.763 -2.099,-2.414 -3.972,-3.764 -1.861,-1.338 -2.864,-2.037 -2.35,-1.462 m 3.052,5.678 c 0.242,0.876 1.129,3.295 2.138,5.315 1.009,2.016 1.995,2.696 2.051,1.591 0.05,-1.062 -1.078,-3.322 -2.38,-5.121 -1.3,-1.793 -2.045,-2.632 -1.809,-1.785 m 0.513,8.248 c -0.13,1.252 -0.155,4.397 0.133,6.942 0.285,2.508 1.053,3.274 1.532,1.786 0.457,-1.426 0.184,-4.375 -0.442,-6.66 -0.632,-2.302 -1.099,-3.264 -1.223,-2.068 m -2.844,11.497 c -0.624,1.719 -1.754,5.68 -2.292,8.746 -0.525,2.975 0.052,3.739 1.064,1.803 0.972,-1.86 1.712,-5.544 1.861,-8.317 0.15,-2.833 -0.037,-3.873 -0.633,-2.232 m -7.259,15.543 c -1.268,2.289 -3.686,7.096 -5.106,10.584 -1.356,3.318 -0.881,3.918 0.778,1.483 1.599,-2.35 3.483,-6.741 4.466,-9.929 1.019,-3.316 1.077,-4.331 -0.138,-2.138 m -12.951,20.427 c -2.077,2.963 -5.895,8.51 -8.125,12.157 -2.07,3.371 -1.5,3.544 0.898,0.595 2.33,-2.862 5.388,-7.793 7.158,-11.191 1.884,-3.621 2.072,-4.408 0.069,-1.561 m -20.011,26.02 c -3.059,3.693 -8.175,9.636 -10.897,12.928 -2.417,2.898 -1.422,2.258 1.756,-1.144 3.101,-3.333 7.16,-8.418 9.486,-11.614 2.558,-3.536 2.614,-3.745 -0.345,-0.17 m -28.203,31.841 c -4.13,4.402 -10.051,10.05 -12.607,12.118 -2.037,1.653 -0.134,-0.299 3.738,-3.997 3.822,-3.644 8.406,-8.221 10.723,-10.557 2.743,-2.754 2.173,-1.853 -1.854,2.436 m -36.696,36.902 c -5.158,4.9 -11,9.381 -12.116,8.844 -0.804,-0.385 2.809,-4.362 7.151,-8.058 4.317,-3.699 8.578,-6.783 9.969,-7.392 2.022,-0.903 0.06,1.774 -5.004,6.606 m 79.239,-161.474 c 1.164,-0.155 5.487,-0.705 9.671,-1.252 4.195,-0.548 6.752,-0.952 5.69,-0.877 -1.075,0.075 -5.441,0.668 -9.735,1.3 -4.288,0.629 -6.802,0.989 -5.626,0.829 m 8.946,-0.907 c 1.067,-0.065 5.119,-0.385 9.074,-0.732 3.974,-0.352 6.44,-0.672 5.475,-0.698 -0.978,-0.024 -5.097,0.333 -9.173,0.777 -4.061,0.44 -6.458,0.722 -5.376,0.653 m 8.149,-0.131 c 0.962,0.04 4.725,-0.011 8.437,-0.132 3.736,-0.125 6.109,-0.358 5.259,-0.502 -0.865,-0.144 -4.714,-0.058 -8.562,0.172 -3.825,0.229 -6.109,0.424 -5.134,0.462 m 7.243,0.795 c 0.838,0.163 4.274,0.43 7.716,0.567 3.469,0.136 5.744,0 5.032,-0.286 -0.725,-0.29 -4.267,-0.518 -7.861,-0.533 -3.57,-0.013 -5.74,0.086 -4.887,0.252 m 6.159,1.912 c 0.691,0.316 3.744,0.95 6.872,1.386 3.155,0.439 5.326,0.405 4.781,-0.054 -0.55,-0.46 -3.726,-1.059 -7.03,-1.356 -3.278,-0.295 -5.324,-0.298 -4.623,0.024 m 4.826,3.267 c 0.511,0.506 3.098,1.569 5.854,2.343 2.783,0.779 4.831,0.862 4.501,0.188 -0.331,-0.66 -3.062,-1.691 -6.023,-2.311 -2.934,-0.615 -4.841,-0.727 -4.332,-0.22 m 3.153,4.913 c 0.279,0.741 2.306,2.291 4.617,3.439 2.337,1.158 4.251,1.349 4.19,0.425 -0.062,-0.892 -2.249,-2.415 -4.797,-3.398 -2.524,-0.972 -4.279,-1.192 -4.01,-0.466 m 1.042,6.892 c -0.022,1.023 1.329,3.122 3.123,4.664 1.811,1.555 3.578,1.832 3.854,0.624 0.265,-1.163 -1.261,-3.221 -3.32,-4.595 -2.041,-1.36 -3.633,-1.68 -3.657,-0.693 m -1.613,9.234 c -0.401,1.348 0.153,4.035 1.361,5.963 1.216,1.934 2.842,2.251 3.527,0.735 0.655,-1.466 -0.101,-4.071 -1.593,-5.84 -1.483,-1.755 -2.908,-2.153 -3.295,-0.858 m -4.889,11.923 c -0.863,1.709 -1.214,4.973 -0.626,7.227 0.587,2.235 2.115,2.517 3.264,0.683 1.112,-1.779 1.202,-4.902 0.332,-7.016 -0.874,-2.117 -2.138,-2.541 -2.97,-0.894 m -8.804,14.87 c -1.399,2.088 -2.714,5.83 -2.709,8.267 0.002,2.366 1.511,2.5 3.163,0.371 1.611,-2.076 2.562,-5.6 2.308,-7.934 -0.263,-2.378 -1.409,-2.728 -2.762,-0.704 m -13.258,17.858 c -1.983,2.452 -4.193,6.448 -4.631,8.813 -0.416,2.224 1.208,2.046 3.353,-0.308 2.109,-2.308 3.824,-6.008 4.081,-8.336 0.269,-2.437 -0.87,-2.558 -2.803,-0.169 m -17.945,20.524 c -2.563,2.739 -5.422,6.617 -6.007,8.533 -0.521,1.706 1.411,1.026 3.972,-1.432 2.537,-2.429 4.768,-5.944 5.29,-7.937 0.571,-2.172 -0.736,-1.852 -3.255,0.836 m -22.321,22.346 c -3.053,2.883 -6.13,6.125 -6.38,7.128 -0.191,0.763 2.293,-0.624 5.122,-3.01 2.823,-2.387 5.13,-5.262 5.533,-6.503 0.472,-1.48 -1.25,-0.464 -4.275,2.385 m -25.632,22.754 c -3.347,2.817 -5.886,4.854 -5.351,4.463 0.774,-0.578 3.916,-2.82 6.797,-4.944 2.9,-2.149 4.736,-3.744 4.504,-3.972 -0.216,-0.187 -2.596,1.65 -5.95,4.453 m -27.092,21.309 c -3.382,2.481 -4.752,2.769 -2.786,0.688 2.107,-2.22 6.165,-5.314 8.853,-7.008 2.732,-1.744 3.6,-1.993 2.147,-0.542 -1.266,1.277 -4.801,4.349 -8.214,6.862 M 350.748,416.68 c 0.961,0.029 5.243,-0.346 9.613,-0.834 4.41,-0.49 7.313,-0.984 6.426,-1.11 -0.899,-0.128 -5.306,0.239 -9.788,0.826 -4.444,0.585 -7.223,1.087 -6.251,1.118 m 7.289,0.695 c 0.854,0.147 4.894,0.049 9.079,-0.201 4.228,-0.252 7.088,-0.653 6.321,-0.91 -0.778,-0.263 -4.959,-0.185 -9.273,0.18 -4.273,0.362 -6.992,0.783 -6.127,0.931 m 6.346,1.704 c 0.725,0.28 4.471,0.516 8.432,0.539 4.003,0.024 6.81,-0.269 6.193,-0.685 -0.624,-0.416 -4.526,-0.682 -8.637,-0.577 -4.068,0.108 -6.722,0.436 -5.988,0.723 m 5.18,2.906 c 0.563,0.447 3.946,1.058 7.628,1.396 3.723,0.338 6.46,0.164 6.031,-0.435 -0.433,-0.594 -3.979,-1.262 -7.835,-1.452 -3.818,-0.19 -6.391,0.039 -5.824,0.491 m 3.717,4.326 c 0.365,0.646 3.296,1.689 6.632,2.375 3.372,0.689 6.016,0.645 5.823,-0.171 -0.191,-0.797 -3.291,-1.918 -6.831,-2.446 -3.501,-0.522 -5.982,-0.396 -5.624,0.242 m 1.896,5.986 c 0.107,0.878 2.493,2.399 5.404,3.456 2.943,1.068 5.464,1.146 5.568,0.091 0.095,-1.021 -2.443,-2.638 -5.589,-3.535 -3.115,-0.884 -5.487,-0.865 -5.383,-0.012 m -0.353,7.875 c -0.205,1.136 1.527,3.164 3.937,4.596 2.437,1.448 4.822,1.626 5.273,0.321 0.433,-1.263 -1.435,-3.387 -4.109,-4.669 -2.648,-1.259 -4.901,-1.343 -5.101,-0.248 m -3.059,9.949 c -0.58,1.407 0.405,3.94 2.258,5.708 1.878,1.783 4.118,2.021 4.964,0.473 0.816,-1.509 -0.289,-4.114 -2.423,-5.756 -2.114,-1.619 -4.236,-1.786 -4.799,-0.425 m -6.196,12.096 c -1.001,1.677 -0.83,4.649 0.459,6.657 1.304,2.019 3.429,2.251 4.691,0.488 1.229,-1.724 0.921,-4.719 -0.638,-6.652 -1.546,-1.91 -3.535,-2.119 -4.512,-0.493 m -9.643,14.134 c -1.447,1.912 -2.074,5.17 -1.284,7.256 0.791,2.081 2.856,2.211 4.522,0.303 1.634,-1.882 2.077,-5.098 1.07,-7.179 -1.006,-2.073 -2.892,-2.247 -4.308,-0.38 m -13.146,15.79 c -1.875,2.077 -3.172,5.369 -2.724,7.305 0.447,1.896 2.547,1.82 4.548,-0.14 1.985,-1.938 3.02,-5.132 2.449,-7.146 -0.583,-2.035 -2.426,-2.06 -4.273,-0.019 m -16.319,16.742 c -2.227,2.131 -3.936,5.135 -3.567,6.631 0.354,1.437 2.613,1.03 4.835,-0.853 2.219,-1.88 3.578,-4.732 3.227,-6.413 -0.369,-1.733 -2.286,-1.477 -4.495,0.635 m -18.689,16.689 c -2.444,2.045 -4.162,4.419 -3.566,5.165 0.604,0.735 3.126,-0.127 5.414,-1.8 2.3,-1.692 3.624,-3.861 3.188,-4.943 -0.458,-1.124 -2.589,-0.463 -5.036,1.578 m -19.815,15.451 c -2.483,1.805 -3.704,3.188 -2.606,2.997 1.234,-0.201 4.067,-1.529 6.249,-2.883 2.215,-1.378 3.165,-2.589 2.25,-2.849 -0.829,-0.227 -3.385,0.918 -5.893,2.735 m -19.436,13.07 c -2.332,1.433 -2.718,1.582 -0.77,0.369 2.045,-1.261 5.314,-3.011 7.237,-3.969 1.976,-0.982 2.171,-1.176 0.522,-0.381 -1.532,0.735 -4.615,2.516 -6.989,3.981 m -17.575,9.818 c -2.001,0.996 -1.283,-0.146 1.679,-2.379 2.98,-2.252 6.691,-4.391 8.245,-4.93 1.61,-0.578 0.808,0.336 -1.739,2.151 -2.489,1.78 -6.116,4.142 -8.185,5.158 M 386.911,412.795 c 0.808,0.256 5.305,0.233 10.145,-0.003 4.921,-0.238 8.41,-0.699 7.671,-1.089 -0.747,-0.393 -5.493,-0.455 -10.484,-0.083 -4.907,0.364 -8.146,0.908 -7.332,1.175 m 5.903,2.674 c 0.665,0.41 4.881,0.76 9.527,0.841 4.722,0.085 8.192,-0.237 7.629,-0.806 -0.578,-0.557 -5.042,-1.029 -9.866,-0.961 -4.74,0.072 -7.956,0.505 -7.29,0.926 m 4.59,3.996 c 0.482,0.595 4.33,1.361 8.703,1.809 4.444,0.45 7.866,0.292 7.523,-0.48 -0.337,-0.763 -4.442,-1.683 -9.025,-1.968 -4.505,-0.275 -7.677,0.046 -7.201,0.639 m 2.933,5.517 c 0.252,0.803 3.624,2.041 7.632,2.89 4.072,0.858 7.401,0.875 7.337,-0.122 -0.077,-0.971 -3.666,-2.417 -7.922,-3.09 -4.185,-0.66 -7.292,-0.467 -7.047,0.322 m 0.876,7.217 c -0.03,1.034 2.748,2.777 6.294,4.045 3.599,1.285 6.791,1.476 7.057,0.247 0.259,-1.194 -2.705,-3.186 -6.533,-4.279 -3.765,-1.078 -6.773,-1.017 -6.818,-0.013 m -1.6,9.04 c -0.373,1.273 1.708,3.526 4.699,5.199 3.038,1.693 6.044,2.041 6.695,0.591 0.622,-1.414 -1.579,-3.931 -4.881,-5.448 -3.254,-1.489 -6.14,-1.573 -6.513,-0.342 m -4.461,10.877 c -0.757,1.499 0.538,4.221 2.915,6.23 2.413,2.04 5.218,2.497 6.272,0.862 1.024,-1.6 -0.342,-4.574 -3.042,-6.473 -2.661,-1.864 -5.397,-2.071 -6.145,-0.619 m -7.586,12.551 c -1.167,1.685 -0.679,4.764 1.082,6.987 1.791,2.251 4.393,2.753 5.84,0.999 1.412,-1.734 0.899,-5.013 -1.168,-7.193 -2.039,-2.14 -4.612,-2.44 -5.754,-0.793 m -10.746,13.84 c -1.549,1.81 -1.821,5.042 -0.592,7.295 1.246,2.273 3.694,2.733 5.472,0.948 1.756,-1.772 1.993,-5.144 0.52,-7.439 -1.46,-2.26 -3.869,-2.581 -5.4,-0.804 m -13.614,14.49 c -1.868,1.837 -2.727,4.961 -1.857,7.016 0.874,2.057 3.236,2.379 5.244,0.677 2.002,-1.7 2.787,-4.901 1.773,-7.088 -1.011,-2.171 -3.301,-2.42 -5.16,-0.605 m -15.805,14.295 c -2.085,1.74 -3.241,4.471 -2.491,6.092 0.748,1.608 3.116,1.698 5.215,0.19 2.108,-1.523 3.147,-4.263 2.381,-6.105 -0.778,-1.843 -3.026,-1.921 -5.105,-0.177 m -16.978,13.16 c -2.146,1.536 -3.257,3.603 -2.361,4.581 0.901,0.977 3.363,0.76 5.401,-0.464 2.068,-1.24 3.022,-3.282 2.229,-4.568 -0.8,-1.289 -3.105,-1.095 -5.269,0.451 m -16.938,11.153 c -2.056,1.231 -2.749,2.437 -1.481,2.654 1.323,0.222 3.929,-0.311 5.769,-1.197 1.886,-0.902 2.461,-2.08 1.359,-2.664 -1.074,-0.563 -3.559,-0.048 -5.647,1.207 m -15.698,8.51 c -1.826,0.873 -1.847,1.098 -0.008,0.552 1.899,-0.559 4.706,-1.397 6.254,-1.92 1.595,-0.547 1.554,-0.836 -0.071,-0.631 -1.558,0.197 -4.302,1.106 -6.175,1.999 m -13.488,5.553 c -1.495,0.503 -0.694,-0.221 1.825,-1.481 2.539,-1.274 5.575,-2.365 6.769,-2.555 1.244,-0.202 0.422,0.339 -1.823,1.306 -2.198,0.953 -5.219,2.213 -6.771,2.73 m -10.653,2.623 c -1.119,0.152 0.565,-1.386 3.761,-3.259 3.177,-1.862 6.417,-3.155 7.246,-3.053 0.87,0.102 -0.76,1.374 -3.658,2.979 -2.89,1.615 -6.178,3.173 -7.349,3.333 M 427.858,411.367 c 0.657,0.575 5.676,1.22 11.406,1.567 5.885,0.355 10.38,0.149 9.83,-0.638 -0.547,-0.783 -6.023,-1.663 -12.012,-1.818 -5.823,-0.149 -9.865,0.296 -9.224,0.889 m 6.585,12.591 c 0.152,1.02 4.19,2.744 9.174,4.084 5.11,1.372 9.433,1.685 9.525,0.416 0.085,-1.234 -4.312,-3.364 -9.652,-4.494 -5.201,-1.098 -9.169,-1.006 -9.047,-0.006 m -3.348,19.721 c -0.591,1.483 1.888,4.351 5.567,6.703 3.768,2.403 7.578,3.243 8.533,1.556 0.912,-1.656 -1.684,-5.027 -5.798,-7.22 -4.017,-2.137 -7.715,-2.475 -8.302,-1.039 m -16.074,25.942 c -1.428,1.768 -0.806,5.389 1.308,8.309 2.164,2.983 5.271,4.118 7.049,2.296 1.751,-1.809 1.22,-5.856 -1.297,-8.778 -2.462,-2.853 -5.653,-3.565 -7.06,-1.827 m -27.911,27.921 c -2.017,1.679 -2.79,5.069 -1.781,7.682 1.026,2.64 3.564,3.652 5.752,2.143 2.191,-1.526 3.077,-5.151 1.874,-7.958 -1.184,-2.766 -3.831,-3.541 -5.845,-1.867 m -33.386,23.277 c -2.058,1.181 -3.008,3.289 -2.09,4.76 0.919,1.467 3.279,1.998 5.262,1.129 2.023,-0.885 2.978,-3.096 2.134,-4.876 -0.849,-1.778 -3.216,-2.204 -5.306,-1.013 m -29.847,13.457 c -1.578,0.492 -1.515,0.891 0.151,0.964 1.701,0.061 4.177,0.027 5.536,-0.159 1.41,-0.198 1.354,-0.697 -0.125,-1.076 -1.451,-0.361 -3.932,-0.229 -5.562,0.271 m -20.051,2.829 c -0.88,-0.11 0.625,-1.147 3.35,-2.171 2.723,-1.023 5.439,-1.486 6.095,-1.173 0.678,0.329 -0.767,1.148 -3.265,1.965 -2.485,0.816 -5.258,1.487 -6.18,1.379 M 479.313,425.364 c 0.017,1.367 5.222,4.085 11.879,6.499 6.926,2.514 13.012,3.571 13.355,1.847 0.323,-1.681 -5.513,-5.18 -12.785,-7.339 -6.98,-2.075 -12.433,-2.342 -12.449,-1.007 m -7.444,25.296 c -0.975,1.812 2.066,5.946 6.741,9.719 4.846,3.91 9.926,5.838 11.441,3.769 1.459,-2.049 -1.696,-7.11 -7.08,-10.748 -5.192,-3.508 -10.153,-4.513 -11.102,-2.74 m -23.084,30.158 c -1.907,1.929 -1.357,6.693 1.02,11.008 2.455,4.45 6.183,6.812 8.591,4.879 2.392,-1.928 2.123,-7.451 -0.841,-11.891 -2.872,-4.292 -6.879,-5.899 -8.77,-3.996 m -34.89,28.265 c -2.366,1.548 -3.43,5.616 -2.563,9.273 0.891,3.724 3.53,5.849 6.124,4.569 2.611,-1.314 4.02,-5.783 2.898,-9.774 -1.105,-3.9 -4.083,-5.625 -6.459,-4.068 m -36.983,19.347 c -2.141,0.845 -3.272,3.231 -2.584,5.435 0.687,2.205 2.861,3.681 4.936,3.205 2.129,-0.491 3.436,-3.062 2.811,-5.635 -0.629,-2.562 -2.975,-3.858 -5.163,-3.005 m -29.558,7.662 c -1.474,0.14 -1.516,0.766 -0.114,1.481 1.42,0.716 3.569,1.494 4.841,1.663 1.319,0.172 1.438,-0.573 0.232,-1.602 -1.205,-1.016 -3.43,-1.678 -4.959,-1.542 m -17.868,-2.121 c -0.735,-0.36 0.614,-1.011 2.976,-1.343 2.372,-0.328 4.682,-0.053 5.215,0.495 0.545,0.561 -0.724,1.04 -2.886,1.179 -2.146,0.134 -4.539,0.035 -5.305,-0.331 m -6.757,-8.202 c -0.128,-0.636 2.402,-1.996 5.598,-2.901 3.18,-0.904 5.691,-0.937 5.651,-0.203 -0.041,0.725 -2.485,1.872 -5.5,2.677 -3.027,0.811 -5.623,1.058 -5.749,0.427 M 543.98,433.338 c -0.288,1.983 7.329,6.832 17.401,11.692 10.722,5.169 20.579,8.15 21.491,5.575 0.916,-2.501 -8.086,-9.073 -19.472,-13.653 -10.673,-4.298 -19.149,-5.55 -19.42,-3.614 m -15.658,34.959 c -1.721,2.372 2.178,9.072 8.553,15.868 6.718,7.155 14.182,11.632 16.89,8.954 2.661,-2.65 -1.388,-11.226 -9.114,-18.069 -7.322,-6.473 -14.66,-9.09 -16.329,-6.753 m -36.999,36.562 c -2.825,2.138 -2.773,9.02 -0.329,15.973 2.542,7.242 7.107,12.044 10.734,10.082 3.648,-1.954 4.305,-10.162 0.921,-17.577 -3.235,-7.098 -8.492,-10.578 -11.326,-8.478 m -48.134,27.886 c -3.025,1.301 -4.944,6.508 -4.684,11.862 0.273,5.471 2.826,9.425 6.136,8.606 3.37,-0.844 6.036,-6.604 5.457,-12.576 -0.567,-5.815 -3.85,-9.219 -6.909,-7.892 m -44.258,13.359 c -2.383,0.376 -4.072,3.177 -3.968,6.356 0.118,3.18 1.883,5.918 4.165,6.024 2.352,0.104 4.457,-2.873 4.438,-6.551 -0.013,-3.661 -2.191,-6.22 -4.635,-5.829 m -32.302,-0.03 c -1.4,-0.317 -1.646,0.44 -0.613,1.767 1.03,1.327 2.749,2.98 3.921,3.625 1.207,0.67 1.62,-0.184 0.826,-1.841 -0.8,-1.664 -2.686,-3.218 -4.134,-3.551 m -15.252,-7.74 c -0.63,-0.647 0.545,-1.01 2.538,-0.695 2.008,0.313 3.906,1.323 4.305,2.175 0.414,0.858 -0.636,1.086 -2.421,0.58 -1.771,-0.505 -3.786,-1.387 -4.422,-2.06 m 0.129,-10.787 c 2.686,-0.15 4.966,-0.918 5.136,-1.808 0.171,-0.896 -1.97,-1.511 -4.833,-1.267 -2.861,0.244 -5.218,1.189 -5.213,1.991 -0.002,0.8 2.228,1.24 4.91,1.084"
                   style="fill:url(#linearGradient21649);stroke:none"
                   id="path21651"
                   inkscape:connector-curvature="0" /></g></g></g></g></g></g></g></svg>