<?xml version="1.0" encoding="UTF-8" standalone="no"?>
<!-- Created with Inkscape (http://www.inkscape.org/) -->

<svg
   xmlns:dc="http://purl.org/dc/elements/1.1/"
   xmlns:cc="http://creativecommons.org/ns#"
   xmlns:rdf="http://www.w3.org/1999/02/22-rdf-syntax-ns#"
   xmlns:svg="http://www.w3.org/2000/svg"
   xmlns="http://www.w3.org/2000/svg"
   xmlns:sodipodi="http://sodipodi.sourceforge.net/DTD/sodipodi-0.dtd"
   xmlns:inkscape="http://www.inkscape.org/namespaces/inkscape"
   version="1.1"
   id="svg16006"
   xml:space="preserve"
   width="816"
   height="1056"
   viewBox="0 0 816 1056"
   sodipodi:docname="intersecting-random-lines-svg.svg"
   inkscape:version="0.92.4 (5da689c313, 2019-01-14)"><metadata
     id="metadata16012"><rdf:RDF><cc:Work
         rdf:about=""><dc:format>image/svg+xml</dc:format><dc:type
           rdf:resource="http://purl.org/dc/dcmitype/StillImage" /><dc:title></dc:title></cc:Work></rdf:RDF></metadata><defs
     id="defs16010"><clipPath
       clipPathUnits="userSpaceOnUse"
       id="clipPath16022"><path
         d="M 0,792 H 612 V 0 H 0 Z"
         id="path16020"
         inkscape:connector-curvature="0" /></clipPath></defs><sodipodi:namedview
     pagecolor="#ffffff"
     bordercolor="#666666"
     borderopacity="1"
     objecttolerance="10"
     gridtolerance="10"
     guidetolerance="10"
     inkscape:pageopacity="0"
     inkscape:pageshadow="2"
     inkscape:window-width="1920"
     inkscape:window-height="1018"
     id="namedview16008"
     showgrid="false"
     inkscape:zoom="0.56469832"
     inkscape:cx="599.59322"
     inkscape:cy="380.33898"
     inkscape:window-x="-8"
     inkscape:window-y="-8"
     inkscape:window-maximized="1"
     inkscape:current-layer="g16014" /><g
     id="g16014"
     inkscape:groupmode="layer"
     inkscape:label="stock-abstract-lines-publicdomainvectors.org"
     transform="matrix(1.3333333,0,0,-1.3333333,0,1056)"><g
       id="g16016"><g
         id="g16018"
         clip-path="url(#clipPath16022)"><path
           d="m 612,727.219 c -32.999,25.097 -68.89,47.03 -106.315,64.719"
           style="fill:none;stroke:#352f2e;stroke-width:1.55499995;stroke-linecap:butt;stroke-linejoin:miter;stroke-miterlimit:4;stroke-dasharray:none;stroke-opacity:1"
           id="path16024"
           inkscape:connector-curvature="0" /><path
           d="m 612,715.555 c -27.693,21.465 -57.602,40.497 -88.776,56.387"
           style="fill:none;stroke:#951c40;stroke-width:1.55499995;stroke-linecap:butt;stroke-linejoin:miter;stroke-miterlimit:4;stroke-dasharray:none;stroke-opacity:1"
           id="path16026"
           inkscape:connector-curvature="0" /><path
           d="m 520.981,778.846 -4.661,-9.146 9.144,-4.662 4.663,9.146 z"
           style="fill:#951c40;fill-opacity:1;fill-rule:nonzero;stroke:none"
           id="path16028"
           inkscape:connector-curvature="0" /><path
           d="m 612,703.373 c -28.501,22.529 -59.549,42.241 -91.993,58.51 -23.435,11.743 -47.976,21.88 -73.172,30.055"
           style="fill:none;stroke:#3e342c;stroke-width:1.55499995;stroke-linecap:butt;stroke-linejoin:miter;stroke-miterlimit:4;stroke-dasharray:none;stroke-opacity:1"
           id="path16030"
           inkscape:connector-curvature="0" /><path
           d="m 612,690.784 c -5.646,4.574 -11.375,8.999 -17.184,13.267 -43.495,32.25 -93.31,58.078 -145.105,74.685 -16.554,5.331 -33.489,9.75 -50.643,13.202"
           style="fill:none;stroke:#597f18;stroke-width:1.55499995;stroke-linecap:butt;stroke-linejoin:miter;stroke-miterlimit:4;stroke-dasharray:none;stroke-opacity:1"
           id="path16032"
           inkscape:connector-curvature="0" /><path
           d="M 580.396,-0.151 C 591.285,4.663 601.827,9.967 612,15.715"
           style="fill:none;stroke:#597f18;stroke-width:1.55499995;stroke-linecap:butt;stroke-linejoin:miter;stroke-miterlimit:4;stroke-dasharray:none;stroke-opacity:1"
           id="path16034"
           inkscape:connector-curvature="0" /><path
           d="M 612,47.49 C 597.683,39.268 582.571,31.998 566.73,25.813 500.158,-0.404 422.573,-6.961 343.676,9.317"
           style="fill:none;stroke:#a3443c;stroke-width:1.55499995;stroke-linecap:butt;stroke-linejoin:miter;stroke-miterlimit:4;stroke-dasharray:none;stroke-opacity:1"
           id="path16036"
           inkscape:connector-curvature="0" /><path
           d="m 362.626,783.981 c 49.387,-4.631 98.671,-18.785 143.909,-39.67 37.668,-17.409 73.54,-39.944 105.465,-66.529"
           style="fill:none;stroke:#a3443c;stroke-width:1.55499995;stroke-linecap:butt;stroke-linejoin:miter;stroke-miterlimit:4;stroke-dasharray:none;stroke-opacity:1"
           id="path16038"
           inkscape:connector-curvature="0" /><path
           d="m 339.687,15.383 -2.076,-10.054 10.053,-2.075 2.075,10.054 z"
           style="fill:#a3443c;fill-opacity:1;fill-rule:nonzero;stroke:none"
           id="path16040"
           inkscape:connector-curvature="0" /><path
           d="m 357.993,789.57 -0.958,-10.22 10.222,-0.959 0.958,10.22 z"
           style="fill:#a3443c;fill-opacity:1;fill-rule:nonzero;stroke:none"
           id="path16042"
           inkscape:connector-curvature="0" /><path
           d="M 612,78.515 C 563.618,50.055 505.665,33.698 443.105,33.043 359.425,31.9 271.849,58.739 196.305,111.403"
           style="fill:none;stroke:#832d4b;stroke-width:1.55499995;stroke-linecap:butt;stroke-linejoin:miter;stroke-miterlimit:4;stroke-dasharray:none;stroke-opacity:1"
           id="path16044"
           inkscape:connector-curvature="0" /><path
           d="m 335.415,770.86 c 52.867,-0.098 106.911,-11.788 156.357,-32.443 43.336,-18.076 84.556,-43.583 120.228,-74.15"
           style="fill:none;stroke:#832d4b;stroke-width:1.55499995;stroke-linecap:butt;stroke-linejoin:miter;stroke-miterlimit:4;stroke-dasharray:none;stroke-opacity:1"
           id="path16046"
           inkscape:connector-curvature="0" /><path
           d="m 195.03,118.549 -5.871,-8.421 8.422,-5.871 5.87,8.421 z"
           style="fill:#832d4b;fill-opacity:1;fill-rule:nonzero;stroke:none"
           id="path16048"
           inkscape:connector-curvature="0" /><path
           d="m 330.293,776.003 -0.02,-10.265 10.264,-0.019 0.021,10.264 z"
           style="fill:#832d4b;fill-opacity:1;fill-rule:nonzero;stroke:none"
           id="path16050"
           inkscape:connector-curvature="0" /><path
           d="m 612,620.439 c -7.214,7.05 -14.7,13.798 -22.426,20.2 -65.561,55.012 -156.231,88.62 -238.731,83.915"
           style="fill:none;stroke:#a88200;stroke-width:1.55499995;stroke-linecap:butt;stroke-linejoin:miter;stroke-miterlimit:4;stroke-dasharray:none;stroke-opacity:1"
           id="path16052"
           inkscape:connector-curvature="0" /><path
           d="m 316.047,156.716 c 60.433,-28.445 125.293,-38.493 184.42,-30.313 41.72,5.689 79.592,20.326 111.533,41.955"
           style="fill:none;stroke:#a88200;stroke-width:1.55499995;stroke-linecap:butt;stroke-linejoin:miter;stroke-miterlimit:4;stroke-dasharray:none;stroke-opacity:1"
           id="path16054"
           inkscape:connector-curvature="0" /><path
           d="m 345.426,729.386 0.585,-10.249 10.249,0.585 -0.585,10.249 z"
           style="fill:#a88200;fill-opacity:1;fill-rule:nonzero;stroke:none"
           id="path16056"
           inkscape:connector-curvature="0" /><path
           d="m 313.587,163.546 -4.371,-9.287 9.288,-4.373 4.371,9.287 z"
           style="fill:#a88200;fill-opacity:1;fill-rule:nonzero;stroke:none"
           id="path16058"
           inkscape:connector-curvature="0" /><path
           d="m 612,108.951 c -3.106,-1.892 -6.258,-3.732 -9.452,-5.515 C 549.37,73.642 484.445,59.729 415.793,65.659"
           style="fill:none;stroke:#383564;stroke-width:1.55499995;stroke-linecap:butt;stroke-linejoin:miter;stroke-miterlimit:4;stroke-dasharray:none;stroke-opacity:1"
           id="path16060"
           inkscape:connector-curvature="0" /><path
           d="m 285.019,750.375 c 47.247,8.513 97.042,6.595 144.669,-4.63 44.768,-10.475 88.671,-29.349 127.769,-54.269 19.163,-12.197 37.468,-26.048 54.543,-41.212"
           style="fill:none;stroke:#383564;stroke-width:1.55499995;stroke-linecap:butt;stroke-linejoin:miter;stroke-miterlimit:4;stroke-dasharray:none;stroke-opacity:1"
           id="path16062"
           inkscape:connector-curvature="0" /><path
           d="m 411.121,71.216 -0.883,-10.226 10.227,-0.886 0.884,10.227 z"
           style="fill:#383564;fill-opacity:1;fill-rule:nonzero;stroke:none"
           id="path16064"
           inkscape:connector-curvature="0" /><path
           d="m 279.058,754.515 1.82,-10.102 10.102,1.82 -1.82,10.102 z"
           style="fill:#383564;fill-opacity:1;fill-rule:nonzero;stroke:none"
           id="path16066"
           inkscape:connector-curvature="0" /><path
           d="m 612,635.691 c -21.235,19.672 -44.723,37.215 -69.607,51.848 -36.728,21.643 -77.458,37.589 -118.667,45.916 -43.698,8.915 -88.784,9.292 -131.565,0.541"
           style="fill:none;stroke:#597f18;stroke-width:1.55499995;stroke-linecap:butt;stroke-linejoin:miter;stroke-miterlimit:4;stroke-dasharray:none;stroke-opacity:1"
           id="path16068"
           inkscape:connector-curvature="0" /><path
           d="m 480.983,95.615 c 48.811,4.081 93.507,19.318 131.017,43.22"
           style="fill:none;stroke:#597f18;stroke-width:1.55499995;stroke-linecap:butt;stroke-linejoin:miter;stroke-miterlimit:4;stroke-dasharray:none;stroke-opacity:1"
           id="path16070"
           inkscape:connector-curvature="0" /><path
           d="m 286.103,737.996 2.059,-10.057 10.057,2.057 -2.059,10.057 z"
           style="fill:#597f18;fill-opacity:1;fill-rule:nonzero;stroke:none"
           id="path16072"
           inkscape:connector-curvature="0" /><path
           d="m 475.442,100.304 0.855,-10.229 10.229,0.855 -0.855,10.228 z"
           style="fill:#597f18;fill-opacity:1;fill-rule:nonzero;stroke:none"
           id="path16074"
           inkscape:connector-curvature="0" /><path
           d="M 612,197.667 C 590.721,182.093 566.331,169.911 539.641,162.221 480.682,144.834 411.446,149.018 346.049,176.204 277.362,204.499 218.119,255.66 179.734,320.33"
           style="fill:none;stroke:#a58000;stroke-width:1.55499995;stroke-linecap:butt;stroke-linejoin:miter;stroke-miterlimit:4;stroke-dasharray:none;stroke-opacity:1"
           id="path16076"
           inkscape:connector-curvature="0" /><path
           d="m 315.969,702.721 c 46.381,10.625 96.456,8.154 143.891,-5.728 44.781,-13.001 88.268,-36.535 124.358,-66.775 9.668,-8.047 18.961,-16.722 27.782,-25.905"
           style="fill:none;stroke:#a58000;stroke-width:1.55499995;stroke-linecap:butt;stroke-linejoin:miter;stroke-miterlimit:4;stroke-dasharray:none;stroke-opacity:1"
           id="path16078"
           inkscape:connector-curvature="0" /><path
           d="m 181.529,327.365 -8.828,-5.24 5.24,-8.828 8.827,5.24 z"
           style="fill:#a58000;fill-opacity:1;fill-rule:nonzero;stroke:none"
           id="path16080"
           inkscape:connector-curvature="0" /><path
           d="m 309.819,706.577 2.292,-10.005 10.007,2.291 -2.293,10.007 z"
           style="fill:#a58000;fill-opacity:1;fill-rule:nonzero;stroke:none"
           id="path16082"
           inkscape:connector-curvature="0" /><path
           d="m 612,738.973 c -23.544,17.69 -48.417,33.763 -74.15,47.833"
           style="fill:none;stroke:#5e725c;stroke-width:1.55499995;stroke-linecap:butt;stroke-linejoin:miter;stroke-miterlimit:4;stroke-dasharray:none;stroke-opacity:1"
           id="path16084"
           inkscape:connector-curvature="0" /><path
           d="m 534.806,791.938 c -1.44,-2.633 -3.922,-7.173 -3.922,-7.173 l 9.007,-4.924 4.924,9.007 c 0,0 -3.092,1.69 -5.653,3.09 z"
           style="fill:#5e725c;fill-opacity:1;fill-rule:nonzero;stroke:none"
           id="path16086"
           inkscape:connector-curvature="0" /><path
           d="m 116.002,616.291 c -2.376,-91.592 19.152,-177.434 59.816,-249.205 35.984,-63.914 86.389,-115.333 143.522,-151.645 51.042,-32.58 108.496,-53.472 166.656,-62.567 41.672,-6.509 84.273,-7.169 126.004,-2.525"
           style="fill:none;stroke:#d5d1d0;stroke-width:1.55499995;stroke-linecap:butt;stroke-linejoin:miter;stroke-miterlimit:4;stroke-dasharray:none;stroke-opacity:1"
           id="path16088"
           inkscape:connector-curvature="0" /><path
           d="m 121.266,621.289 -10.262,0.265 -0.266,-10.262 10.262,-0.265 z"
           style="fill:#d5d1d0;fill-opacity:1;fill-rule:nonzero;stroke:none"
           id="path16090"
           inkscape:connector-curvature="0" /><path
           d="M 196.673,791.938 C 162.25,711.884 149.29,627.28 156.016,546.997 c 7.076,-83.914 35.409,-159.963 80.778,-221.101 40.106,-54.431 91.652,-96.057 148.748,-123.733 51.298,-24.803 107.53,-38.205 163.422,-40.699 20.953,-0.949 42.046,-0.394 63.036,1.577"
           style="fill:none;stroke:#7ecaca;stroke-width:1.55499995;stroke-linecap:butt;stroke-linejoin:miter;stroke-miterlimit:4;stroke-dasharray:none;stroke-opacity:1"
           id="path16092"
           inkscape:connector-curvature="0" /><path
           d="m 191.21,558.946 c 2.636,-80.613 26.626,-154.763 66.744,-215.069 35.923,-54.051 83.812,-96.105 137.655,-124.487 48.397,-25.89 102.339,-39.938 156.225,-43.568 19.963,-1.335 40.093,-1.256 60.166,0.207"
           style="fill:none;stroke:#cdcbcf;stroke-width:1.55499995;stroke-linecap:butt;stroke-linejoin:miter;stroke-miterlimit:4;stroke-dasharray:none;stroke-opacity:1"
           id="path16094"
           inkscape:connector-curvature="0" /><path
           d="m 196.173,564.244 -10.26,-0.336 0.335,-10.26 10.26,0.335 z"
           style="fill:#cdcbcf;fill-opacity:1;fill-rule:nonzero;stroke:none"
           id="path16096"
           inkscape:connector-curvature="0" /><path
           d="M 244.63,689.765 C 217.756,597.318 220.788,504.172 249.812,424.406 275.449,353.225 321.275,295.125 377.405,255.175 427.2,219.511 485.851,198.144 545.533,191.356 567.46,188.815 589.738,188.199 612,189.387"
           style="fill:none;stroke:#b28dc0;stroke-width:1.55499995;stroke-linecap:butt;stroke-linejoin:miter;stroke-miterlimit:4;stroke-dasharray:none;stroke-opacity:1"
           id="path16098"
           inkscape:connector-curvature="0" /><path
           d="m 250.991,693.261 -9.856,2.865 -2.865,-9.857 9.856,-2.865 z"
           style="fill:#b28dc0;fill-opacity:1;fill-rule:nonzero;stroke:none"
           id="path16100"
           inkscape:connector-curvature="0" /><path
           d="m 612,203.104 c -23.664,-0.71 -47.307,0.751 -70.429,4.526 -52.14,8.491 -102.644,28.969 -145.684,61.105 -47.853,35.507 -87.019,85.22 -110.547,145.452 -26.216,66.573 -32.773,144.16 -16.493,223.057"
           style="fill:none;stroke:#72adc1;stroke-width:1.55499995;stroke-linecap:butt;stroke-linejoin:miter;stroke-miterlimit:4;stroke-dasharray:none;stroke-opacity:1"
           id="path16102"
           inkscape:connector-curvature="0" /><path
           d="m 274.911,641.233 -10.054,2.075 -2.075,-10.054 10.054,-2.074 z"
           style="fill:#72adc1;fill-opacity:1;fill-rule:nonzero;stroke:none"
           id="path16104"
           inkscape:connector-curvature="0" /><path
           d="m 612,217.218 c -38.288,-0.146 -76.474,5.878 -112.132,18.443 -54.592,19.147 -104.087,54.158 -140.921,102.247 -41.249,53.664 -65.573,123.335 -66.377,199.905 -1.142,83.681 25.699,171.257 78.362,246.801"
           style="fill:none;stroke:#91c2bd;stroke-width:1.55499995;stroke-linecap:butt;stroke-linejoin:miter;stroke-miterlimit:4;stroke-dasharray:none;stroke-opacity:1"
           id="path16106"
           inkscape:connector-curvature="0" /><path
           d="m 378.078,785.889 -8.422,5.871 -5.87,-8.421 8.422,-5.871 z"
           style="fill:#91c2bd;fill-opacity:1;fill-rule:nonzero;stroke:none"
           id="path16108"
           inkscape:connector-curvature="0" /><path
           d="m 416.246,664.874 c -28.447,-60.435 -38.494,-125.295 -30.313,-184.421 7.474,-54.837 30.41,-103.024 64.365,-139.834 31.103,-33.876 70.561,-57.449 113.729,-69.529 15.536,-4.393 31.626,-7.303 47.973,-8.782"
           style="fill:none;stroke:#6e83ca;stroke-width:1.55499995;stroke-linecap:butt;stroke-linejoin:miter;stroke-miterlimit:4;stroke-dasharray:none;stroke-opacity:1"
           id="path16110"
           inkscape:connector-curvature="0" /><path
           d="m 423.074,667.332 -9.286,4.371 -4.373,-9.287 9.288,-4.372 z"
           style="fill:#6e83ca;fill-opacity:1;fill-rule:nonzero;stroke:none"
           id="path16112"
           inkscape:connector-curvature="0" /><path
           d="m 612,231.751 c -47.662,1.097 -94.951,12.8 -136.519,35.339 -45.874,24.764 -85.558,62.987 -112.517,111.282 -29.793,53.177 -43.706,118.101 -37.776,186.753"
           style="fill:none;stroke:#dacda6;stroke-width:1.55499995;stroke-linecap:butt;stroke-linejoin:miter;stroke-miterlimit:4;stroke-dasharray:none;stroke-opacity:1"
           id="path16114"
           inkscape:connector-curvature="0" /><path
           d="m 330.745,569.798 -10.228,0.884 -0.884,-10.228 10.228,-0.884 z"
           style="fill:#dacda6;fill-opacity:1;fill-rule:nonzero;stroke:none"
           id="path16116"
           inkscape:connector-curvature="0" /><path
           d="m 355.146,499.935 c 4.79,-57.32 24.966,-108.967 56.496,-149.962 29.019,-37.586 66.954,-66.06 109.257,-83.137 28.627,-11.845 59.632,-18.357 91.101,-20.047"
           style="fill:none;stroke:#b28dc0;stroke-width:1.55499995;stroke-linecap:butt;stroke-linejoin:miter;stroke-miterlimit:4;stroke-dasharray:none;stroke-opacity:1"
           id="path16118"
           inkscape:connector-curvature="0" /><path
           d="m 359.833,505.477 -10.231,-0.855 0.855,-10.23 10.231,0.856 z"
           style="fill:#b28dc0;fill-opacity:1;fill-rule:nonzero;stroke:none"
           id="path16120"
           inkscape:connector-curvature="0" /><path
           d="m 612,278.437 c -35.169,4.697 -68.863,16.739 -97.888,36.049 -43.057,28.464 -76.847,72.947 -92.362,126.794 -17.389,58.958 -13.204,128.194 13.982,193.591 26.114,63.39 71.703,118.737 129.412,157.067"
           style="fill:none;stroke:#7285cb;stroke-width:1.55499995;stroke-linecap:butt;stroke-linejoin:miter;stroke-miterlimit:4;stroke-dasharray:none;stroke-opacity:1"
           id="path16122"
           inkscape:connector-curvature="0" /><path
           d="m 88.326,502.658 c 6.736,-30.189 16.079,-59.218 27.82,-86.775 35.178,-83.715 92.475,-150.832 159.746,-198.078 58.855,-41.322 125.664,-67.654 194.366,-78.146 46.933,-7.398 94.961,-7.643 141.742,-1.655"
           style="fill:none;stroke:#b3979e;stroke-width:1.55499995;stroke-linecap:butt;stroke-linejoin:miter;stroke-miterlimit:4;stroke-dasharray:none;stroke-opacity:1"
           id="path16124"
           inkscape:connector-curvature="0" /><path
           d="M 604.578,791.938 C 549.306,757.023 504.371,711.041 471.681,659.605 439.1,608.563 418.209,551.109 409.115,492.95 c -8.272,-52.945 -7.1,-107.388 2.394,-159.645 8.82,-48.887 25.169,-97.224 47.632,-141.924 21.68,-43.24 49.364,-84.011 81.442,-120.555 C 561.894,46.453 585.939,23.486 612,2.497"
           style="fill:none;stroke:#a8a4a4;stroke-width:1.55499995;stroke-linecap:butt;stroke-linejoin:miter;stroke-miterlimit:4;stroke-dasharray:none;stroke-opacity:1"
           id="path16126"
           inkscape:connector-curvature="0" /><path
           d="M 612,762.24 C 601.694,755.975 591.73,749.272 582.134,742.151 527.706,702.045 486.078,650.499 458.404,593.402 433.6,542.106 420.197,485.874 417.703,429.982 c -2.322,-51.333 4.379,-103.503 18.803,-152.937 13.628,-46.774 34.658,-92.483 61.21,-133.863 25.896,-40.405 57.776,-78.339 93.848,-111.091 6.641,-6.049 13.459,-11.955 20.436,-17.709"
           style="fill:none;stroke:#7da1a0;stroke-width:1.55499995;stroke-linecap:butt;stroke-linejoin:miter;stroke-miterlimit:4;stroke-dasharray:none;stroke-opacity:1"
           id="path16128"
           inkscape:connector-curvature="0" /><path
           d="m 612,728.579 c -4.018,-2.46 -7.98,-4.99 -11.885,-7.586 C 546.064,685.068 504.011,637.18 475.627,583.335 449.739,534.939 435.69,480.997 432.061,427.111 c -3.319,-49.606 2.116,-100.238 15.727,-148.458 24.538,-89.164 79.71,-175.866 149.815,-239.212 4.71,-4.296 9.509,-8.51 14.397,-12.641"
           style="fill:none;stroke:#a4a1a3;stroke-width:1.55499995;stroke-linecap:butt;stroke-linejoin:miter;stroke-miterlimit:4;stroke-dasharray:none;stroke-opacity:1"
           id="path16130"
           inkscape:connector-curvature="0" /><path
           d="M 612,695.888 C 571.618,670.729 537.613,638.35 511.416,601.54 475.749,551.746 454.382,493.094 447.595,433.412 441.309,379.143 446.797,322.734 462.292,269.729 486.782,184.176 542.072,100.638 612,39.693"
           style="fill:none;stroke:#96809a;stroke-width:1.55499995;stroke-linecap:butt;stroke-linejoin:miter;stroke-miterlimit:4;stroke-dasharray:none;stroke-opacity:1"
           id="path16132"
           inkscape:connector-curvature="0" /><path
           d="m 612,53.025 c -0.214,0.193 -0.425,0.384 -0.639,0.576 -69.531,62.024 -123.01,149.592 -142.406,237.876 -10.807,47.909 -12.9,98.018 -5.085,145.898 8.49,52.14 28.968,102.645 61.105,145.684 23.257,31.345 52.611,58.963 87.025,80.9"
           style="fill:none;stroke:#76909b;stroke-width:1.55499995;stroke-linecap:butt;stroke-linejoin:miter;stroke-miterlimit:4;stroke-dasharray:none;stroke-opacity:1"
           id="path16134"
           inkscape:connector-curvature="0" /><path
           d="m 612,66.877 c -35.273,32.652 -65.738,71.548 -88.517,112.991 -24.461,44.442 -40.975,93.703 -47.124,142.861 -6.721,52.665 -1.872,106.934 15.542,156.349 19.147,54.591 54.158,104.087 102.247,140.921 5.769,4.435 11.724,8.674 17.852,12.709"
           style="fill:none;stroke:#869c99;stroke-width:1.55499995;stroke-linecap:butt;stroke-linejoin:miter;stroke-miterlimit:4;stroke-dasharray:none;stroke-opacity:1"
           id="path16136"
           inkscape:connector-curvature="0" /><path
           d="m 612,541.493 c -5.238,-4.084 -10.289,-8.369 -15.142,-12.846 -33.875,-31.103 -57.449,-70.561 -69.53,-113.729 -11.287,-39.927 -12.793,-83.511 -5.359,-125.702 7.017,-40.092 22.257,-79.852 44.054,-115.801 13.073,-21.595 28.581,-42.14 45.977,-60.92"
           style="fill:none;stroke:#7379a0;stroke-width:1.55499995;stroke-linecap:butt;stroke-linejoin:miter;stroke-miterlimit:4;stroke-dasharray:none;stroke-opacity:1"
           id="path16138"
           inkscape:connector-curvature="0" /><path
           d="m 612,81.336 c -11.822,11.408 -22.952,23.452 -33.252,36.006 -28.57,34.785 -51.863,74.368 -67.309,115.491 -16.15,42.809 -24.434,88.688 -23.465,133.319 0.984,47.93 12.689,95.514 35.354,137.312 20.763,38.46 50.985,72.57 88.672,98.478"
           style="fill:none;stroke:#aaa28e;stroke-width:1.55499995;stroke-linecap:butt;stroke-linejoin:miter;stroke-miterlimit:4;stroke-dasharray:none;stroke-opacity:1"
           id="path16140"
           inkscape:connector-curvature="0" /><path
           d="m 612,571.628 c -1.952,-1.417 -3.883,-2.858 -5.789,-4.325 -37.585,-29.019 -66.06,-66.953 -83.135,-109.256 -16.109,-38.927 -22.353,-82.251 -20.022,-125.154 2.214,-40.441 12.081,-81.406 29.064,-119.507 16.196,-36.816 39.291,-72.244 66.753,-102.929 4.25,-4.75 8.629,-9.412 13.129,-13.977"
           style="fill:none;stroke:#96809a;stroke-width:1.55499995;stroke-linecap:butt;stroke-linejoin:miter;stroke-miterlimit:4;stroke-dasharray:none;stroke-opacity:1"
           id="path16142"
           inkscape:connector-curvature="0" /><path
           d="m 612,129.577 c -17.982,20.904 -33.554,43.89 -45.779,67.724 -21.38,41.574 -33.418,87.934 -33.785,132.877 -0.499,48.148 12.32,95.625 38.289,134.655 11.351,17.172 25.25,32.869 41.275,46.521"
           style="fill:none;stroke:#747aa1;stroke-width:1.55499995;stroke-linecap:butt;stroke-linejoin:miter;stroke-miterlimit:4;stroke-dasharray:none;stroke-opacity:1"
           id="path16144"
           inkscape:connector-curvature="0" /><path
           d="M 555.752,791.938 C 524.152,765.527 496.793,735.446 474.043,703.054 432.723,644.197 406.391,577.39 395.897,508.688 386.261,447.562 388.76,384.578 401.361,324.914 413.028,269.505 434.007,214.9 462.115,165.408 489.254,117.543 523.596,72.871 563.231,33.755 575.147,22.01 587.648,10.684 600.645,-0.151"
           style="fill:none;stroke:#968688;stroke-width:1.55499995;stroke-linecap:butt;stroke-linejoin:miter;stroke-miterlimit:4;stroke-dasharray:none;stroke-opacity:1"
           id="path16146"
           inkscape:connector-curvature="0" /><path
           d="m 612,569.442 c -8.63,-1.102 -17.217,-2.43 -25.744,-3.98 -48.888,-8.82 -97.225,-25.168 -141.926,-47.63 C 401.089,496.151 360.319,468.466 323.775,436.388 250.588,372.397 190.079,283.745 157.744,189.924"
           style="fill:none;stroke:#747171;stroke-width:1.55499995;stroke-linecap:butt;stroke-linejoin:miter;stroke-miterlimit:4;stroke-dasharray:none;stroke-opacity:1"
           id="path16148"
           inkscape:connector-curvature="0" /><path
           d="m 151.219,186.744 9.705,-3.344 3.344,9.704 -9.705,3.346 z"
           style="fill:#747171;fill-opacity:1;fill-rule:nonzero;stroke:none"
           id="path16150"
           inkscape:connector-curvature="0" /><path
           d="M 612,556.882 C 584.242,553.805 556.719,548.264 529.996,540.466 483.222,526.839 437.512,505.808 396.131,479.256 355.729,453.359 317.793,421.48 285.042,385.407 251.859,348.978 222.978,307.282 200.424,263.037"
           style="fill:none;stroke:#666f70;stroke-width:1.55499995;stroke-linecap:butt;stroke-linejoin:miter;stroke-miterlimit:4;stroke-dasharray:none;stroke-opacity:1"
           id="path16152"
           inkscape:connector-curvature="0" /><path
           d="m 193.521,260.795 9.146,-4.662 4.661,9.146 -9.145,4.662 z"
           style="fill:#666f70;fill-opacity:1;fill-rule:nonzero;stroke:none"
           id="path16154"
           inkscape:connector-curvature="0" /><path
           d="M 612,544.056 C 584.855,541.587 557.871,536.599 531.603,529.184 442.44,504.646 355.737,449.473 292.392,379.37 259.962,343.818 232.165,303.059 210.484,259.818 187.831,214.615 171.155,165.292 163.005,115.088"
           style="fill:none;stroke:#737071;stroke-width:1.55499995;stroke-linecap:butt;stroke-linejoin:miter;stroke-miterlimit:4;stroke-dasharray:none;stroke-opacity:1"
           id="path16156"
           inkscape:connector-curvature="0" /><path
           d="m 157.116,110.844 10.133,-1.645 1.645,10.132 -10.133,1.646 z"
           style="fill:#737071;fill-opacity:1;fill-rule:nonzero;stroke:none"
           id="path16158"
           inkscape:connector-curvature="0" /><path
           d="M 612,530.85 C 581.812,528.66 551.733,523.173 522.679,514.68 425.089,486.744 330.118,418.73 268.315,334.63 236.066,291.135 210.238,241.318 193.63,189.525 175.796,134.14 168.157,74.464 172.832,16.756"
           style="fill:none;stroke:#6e646d;stroke-width:1.55499995;stroke-linecap:butt;stroke-linejoin:miter;stroke-miterlimit:4;stroke-dasharray:none;stroke-opacity:1"
           id="path16160"
           inkscape:connector-curvature="0" /><path
           d="m 168.131,11.227 10.232,0.828 -0.829,10.232 -10.232,-0.829 z"
           style="fill:#6e646d;fill-opacity:1;fill-rule:nonzero;stroke:none"
           id="path16162"
           inkscape:connector-curvature="0" /><path
           d="m 188.386,102.439 c 4.631,49.387 18.784,98.67 39.67,143.91 19.963,43.197 46.67,84.031 78.495,119.26 62.023,69.532 149.593,123.012 237.876,142.408 22.2,5.006 44.871,8.144 67.573,9.291"
           style="fill:none;stroke:#63696e;stroke-width:1.55499995;stroke-linecap:butt;stroke-linejoin:miter;stroke-miterlimit:4;stroke-dasharray:none;stroke-opacity:1"
           id="path16164"
           inkscape:connector-curvature="0" /><path
           d="m 182.797,97.808 10.22,-0.957 0.958,10.218 -10.22,0.959 z"
           style="fill:#63696e;fill-opacity:1;fill-rule:nonzero;stroke:none"
           id="path16166"
           inkscape:connector-curvature="0" /><path
           d="m 201.506,75.229 c 0.098,52.867 11.788,106.912 32.444,156.358 19.565,46.907 47.837,91.334 81.808,128.93 33.47,37.163 73.883,69.238 117.061,92.97 44.441,24.462 93.703,40.977 142.859,47.125 12.049,1.538 24.181,2.471 36.322,2.785"
           style="fill:none;stroke:#696d6d;stroke-width:1.55499995;stroke-linecap:butt;stroke-linejoin:miter;stroke-miterlimit:4;stroke-dasharray:none;stroke-opacity:1"
           id="path16168"
           inkscape:connector-curvature="0" /><path
           d="m 196.364,70.106 10.265,-0.017 0.019,10.264 -10.265,0.018 z"
           style="fill:#696d6d;fill-opacity:1;fill-rule:nonzero;stroke:none"
           id="path16170"
           inkscape:connector-curvature="0" /><path
           d="m 612,459.029 c -23.142,1.438 -46.698,0.051 -69.834,-4.027 -40.093,-7.017 -79.852,-22.255 -115.803,-44.054 -35.418,-21.44 -68.014,-49.442 -94.634,-81.559 C 276.716,263.827 243.108,173.157 247.813,90.656"
           style="fill:none;stroke:#62616f;stroke-width:1.55499995;stroke-linecap:butt;stroke-linejoin:miter;stroke-miterlimit:4;stroke-dasharray:none;stroke-opacity:1"
           id="path16172"
           inkscape:connector-curvature="0" /><path
           d="m 242.981,85.24 10.248,0.585 -0.584,10.247 -10.249,-0.583 z"
           style="fill:#62616f;fill-opacity:1;fill-rule:nonzero;stroke:none"
           id="path16174"
           inkscape:connector-curvature="0" /><path
           d="m 221.993,24.833 c -8.514,47.246 -6.596,97.042 4.629,144.668 10.475,44.768 29.349,88.672 54.269,127.77 24.183,37.993 54.863,72.615 89.4,100.953 34.787,28.57 74.37,51.864 115.492,67.309 40.54,15.294 83.835,23.535 126.217,23.541"
           style="fill:none;stroke:#75706a;stroke-width:1.55499995;stroke-linecap:butt;stroke-linejoin:miter;stroke-miterlimit:4;stroke-dasharray:none;stroke-opacity:1"
           id="path16176"
           inkscape:connector-curvature="0" /><path
           d="m 217.851,18.87 10.103,1.822 -1.82,10.103 -10.103,-1.821 z"
           style="fill:#75706a;fill-opacity:1;fill-rule:nonzero;stroke:none"
           id="path16178"
           inkscape:connector-curvature="0" /><path
           d="m 612,474.266 c -8.711,0.245 -17.442,0.125 -26.159,-0.348 -40.439,-2.213 -81.403,-12.081 -119.505,-29.064 -36.815,-16.197 -72.244,-39.291 -102.93,-66.753 -30.639,-27.414 -57.599,-60.218 -78.578,-95.894 -21.643,-36.728 -37.59,-77.459 -45.916,-118.667 -8.915,-43.698 -9.291,-88.784 -0.541,-131.564"
           style="fill:none;stroke:#6e646d;stroke-width:1.55499995;stroke-linecap:butt;stroke-linejoin:miter;stroke-miterlimit:4;stroke-dasharray:none;stroke-opacity:1"
           id="path16180"
           inkscape:connector-curvature="0" /><path
           d="m 234.372,25.917 10.056,2.058 -2.057,10.057 -10.058,-2.057 z"
           style="fill:#6e646d;fill-opacity:1;fill-rule:nonzero;stroke:none"
           id="path16182"
           inkscape:connector-curvature="0" /><path
           d="m 269.646,55.783 c -10.625,46.381 -8.155,96.454 5.728,143.891 13.001,44.78 36.535,88.266 66.774,124.357 29.56,35.515 67.602,65.946 108.104,86.719 41.574,21.38 87.934,33.418 132.875,33.786 9.672,0.1 19.317,-0.337 28.873,-1.31"
           style="fill:none;stroke:#636170;stroke-width:1.55499995;stroke-linecap:butt;stroke-linejoin:miter;stroke-miterlimit:4;stroke-dasharray:none;stroke-opacity:1"
           id="path16184"
           inkscape:connector-curvature="0" /><path
           d="m 265.789,49.633 10.006,2.293 -2.292,10.005 -10.006,-2.291 z"
           style="fill:#636170;fill-opacity:1;fill-rule:nonzero;stroke:none"
           id="path16186"
           inkscape:connector-curvature="0" /><path
           d="M 612,581.657 C 600.525,580.011 589.136,577.991 577.863,575.61 522.455,563.944 467.852,542.964 418.358,514.856 370.494,487.719 325.82,453.376 286.704,413.74 247.369,373.837 212.73,327.357 185.561,277.664"
           style="fill:none;stroke:#6e6667;stroke-width:1.55499995;stroke-linecap:butt;stroke-linejoin:miter;stroke-miterlimit:4;stroke-dasharray:none;stroke-opacity:1"
           id="path16188"
           inkscape:connector-curvature="0" /><path
           d="m 178.595,275.623 9.007,-4.926 4.924,9.006 -9.006,4.926 z"
           style="fill:#6e6667;fill-opacity:1;fill-rule:nonzero;stroke:none"
           id="path16190"
           inkscape:connector-curvature="0" /></g></g></g></svg>